<svg width="128" height="56" viewBox="0 0 128 56" fill="none" xmlns="http://www.w3.org/2000/svg">
<path fill-rule="evenodd" clip-rule="evenodd" d="M2.33915 0.505101C2.11818 0.783173 1.44404 6.25892 0.841016 12.674C-0.171396 23.4411 -0.205545 24.3877 0.397082 24.9944C0.897663 25.4976 1.21183 25.5485 1.74295 25.2114C2.46128 24.7559 2.61394 23.6719 3.85455 10.2166L4.3471 4.8726L7.95803 9.81241C12.2122 15.6321 14.1723 17.7835 15.2205 17.7835C16.2558 17.7835 16.8018 17.3163 26.2887 8.30848L28.4417 6.26458L28.2975 16.3232C28.1657 25.5154 28.2131 26.4195 28.8487 26.8249C29.3782 27.162 29.6871 27.1244 30.1427 26.666C30.6264 26.1794 30.8124 23.8195 31.1146 14.3456C31.3677 6.40887 31.3556 2.46413 31.0772 2.1218C30.0817 0.897958 29.3601 1.40681 22.1238 8.4358C19.6912 10.7982 17.1352 13.2463 16.4434 13.8752L15.1859 15.0194L12.2158 11.046C10.5819 8.86099 8.10909 5.48169 6.71984 3.5364C4.2338 0.0552562 3.24188 -0.631435 2.33915 0.505101ZM103.306 16.5302C103.167 16.7557 103.154 18.1756 103.277 19.686C103.43 21.567 103.381 22.1627 103.122 21.5779C102.492 20.1528 100.687 18.996 99.0928 18.996C97.755 18.996 97.626 18.8974 97.6405 17.8846C97.6541 16.9162 97.5015 16.7731 96.4549 16.7731C95.1022 16.7731 94.778 17.5738 94.6904 21.1309C94.6008 24.781 96.2902 27.0795 99.0623 27.0795C100.821 27.0795 102.185 26.1641 102.904 24.5017L103.45 23.2399L103.466 24.7414C103.484 26.4866 104.69 27.5112 105.717 26.6539C106.341 26.1325 106.473 21.6042 105.963 18.1877C105.726 16.6029 105.554 16.3527 104.624 16.2448C104.038 16.1765 103.444 16.3051 103.306 16.5302ZM34.879 17.3773C32.1744 19.0361 31.2708 22.0815 32.7557 24.5316C34.4117 27.2638 37.5161 28.1591 40.3291 26.7154C41.2463 26.2445 42.272 25.3242 42.6078 24.6706C43.4182 23.0944 43.3832 20.4111 42.5335 18.9637C41.1696 16.6409 37.365 15.8524 34.879 17.3773ZM51.6858 17.2783C51.186 17.6881 50.5609 19.0005 50.1993 20.3993C49.0567 24.8186 47.7049 26.3035 47.2364 23.6537C46.9753 22.1773 45.9271 21.4777 45.0605 22.2011C44.1948 22.9242 44.2631 24.5858 45.2232 26.1701C45.9239 27.3265 46.2276 27.4837 47.7579 27.4837C49.1371 27.4837 49.7096 27.2537 50.5272 26.3722C51.8915 24.9006 52.2691 24.0894 52.879 21.32C53.1912 19.9022 53.6005 18.996 53.9292 18.996C54.3454 18.996 54.4679 19.9564 54.4679 23.2128C54.4679 27.1866 54.5181 27.4453 55.3413 27.708C56.8608 28.1934 57.2802 26.9967 57.2802 22.1753C57.2802 18.1424 57.2159 17.7839 56.3871 17.2003C55.1963 16.3608 52.7549 16.4017 51.6858 17.2783ZM82.0509 17.0807C81.4495 17.5232 81.3732 18.2314 81.472 22.436L81.5861 27.2816H82.7914C83.8942 27.2816 84.0071 27.1527 84.1212 25.766C84.226 24.4916 84.3927 24.2503 85.1673 24.2503C85.6739 24.2503 87.1881 24.1347 88.532 23.9932L90.9758 23.7362L91.102 25.5089C91.2141 27.0823 91.3467 27.2954 92.2815 27.4045C93.7543 27.5763 93.909 26.8879 93.5928 21.5662C93.3546 17.5608 93.2256 16.9618 92.5567 16.7484C91.2992 16.3467 90.6255 17.2892 90.6255 19.4495V21.4211H88.0471C86.6289 21.4211 85.1826 21.5314 84.8331 21.6664C84.3052 21.8701 84.1975 21.5662 84.1975 19.8763C84.1975 18.5652 83.9729 17.6154 83.5663 17.206C82.8086 16.4441 82.9059 16.4522 82.0509 17.0807ZM61.2575 17.8377C57.477 20.0433 57.4955 25.093 61.2913 27.1349C65.0926 29.1796 69.7377 26.447 69.7329 22.1684C69.7284 18.1052 64.9681 15.6729 61.2575 17.8377ZM71.3688 17.7326C71.1326 18.176 70.9397 19.3873 70.9397 20.424C70.9397 22.9311 72.5082 24.5142 75.3694 24.8962C77.0769 25.1241 77.3392 25.2858 77.4461 26.1786C77.6088 27.5358 78.6911 28.2237 79.5436 27.512C80.5014 26.7121 80.4829 17.4707 79.5227 17.1001C78.2636 16.6142 77.575 17.5459 77.4493 19.905C77.3175 22.3854 76.6506 22.9501 74.8905 22.0722C74.1252 21.6903 73.9159 21.1972 73.752 19.3909C73.5804 17.499 73.4237 17.1591 72.6745 17.0516C72.1209 16.9723 71.6396 17.2233 71.3688 17.7326ZM39.6256 19.7413C42.0028 21.6781 39.3464 26.0258 36.6643 24.5886C34.5929 23.4787 34.2169 21.5488 35.7684 19.9883C36.9415 18.8081 38.3678 18.7168 39.6256 19.7413ZM65.4422 19.865C66.6044 20.4806 66.9085 20.9931 66.9162 22.3487C66.9234 23.6958 65.3236 25.4628 64.0975 25.4628C63.0879 25.4628 60.8959 23.3874 60.8959 22.4315C60.8959 21.5678 63.0473 19.4002 63.9047 19.4002C64.2674 19.4002 64.9593 19.6092 65.4422 19.865ZM100.278 22.0395C100.667 22.512 100.681 22.8927 100.335 23.6562C99.7927 24.8537 99.0321 24.9293 98.088 23.8797C97.532 23.2617 97.4818 22.9347 97.8389 22.263C98.3656 21.2732 99.5552 21.164 100.278 22.0395ZM103.508 31.1483C102.786 32.0521 101.445 33.3402 100.528 34.0099L98.8614 35.2281L98.6605 32.9126C98.4472 30.4536 97.7502 29.5535 96.4481 30.0559C95.7981 30.3068 95.7527 30.8088 95.9467 35.6177C96.1777 41.3493 96.5566 42.3755 98.2423 41.8371C98.9992 41.5954 99.1033 41.3052 99.0056 39.7091C98.8481 37.1325 99.863 36.7801 102.044 38.6534C103.514 39.9169 107.224 41.6298 108.49 41.6298C109.3 41.6298 110.313 40.486 110.069 39.847C109.954 39.5463 109.193 39.1914 108.378 39.0584C107.563 38.9254 105.933 38.162 104.754 37.3613L102.612 35.9055L104.456 34.0766C106.275 32.2723 107.021 30.766 106.509 29.9318C105.977 29.0656 104.786 29.5482 103.508 31.1483ZM23.4017 30.7607C21.7381 31.6434 20.344 34.0592 20.3279 36.0853C20.2978 39.948 24.3688 42.8156 28.2537 41.6678C30.3548 41.047 29.9005 42.2486 27.6559 43.2473C24.599 44.6077 22.8441 46.7531 22.1531 49.9743C21.8208 51.5239 22.7228 53.9106 23.8746 54.531C25.1369 55.2108 27.2196 55.0443 28.6824 54.147C30.3074 53.1503 31.7815 50.0536 32.1503 46.861C32.3925 44.7682 32.4978 44.5891 33.6966 44.2339C35.5133 43.6955 35.5005 42.2861 33.6773 42.1095L32.3716 41.9826V36.7413C32.3716 32.8887 32.2387 31.4648 31.8694 31.367C31.5934 31.2938 30.4633 30.9349 29.3585 30.5692C26.7568 29.7087 25.2952 29.7556 23.4017 30.7607ZM39.4023 30.7042C36.4096 31.3912 34.7383 33.1724 34.4724 35.9592C34.2305 38.4906 35.3783 40.4354 37.8218 41.6358C39.9025 42.658 41.3267 42.6491 43.4788 41.6011C47.5884 39.5996 48.0781 33.8785 44.3334 31.6176C42.7364 30.6532 41.0145 30.3343 39.4023 30.7042ZM89.7119 32.6171C88.6855 33.9064 87.0318 35.8703 86.0371 36.9818L84.2284 39.0026L84.2128 35.4948C84.2015 32.8608 84.0404 31.8294 83.5663 31.352C82.8436 30.6253 82.609 30.5898 81.8272 31.0877C80.9606 31.6398 81.4427 41.5894 82.3691 42.2708C83.492 43.0969 84.4968 42.4668 87.9655 38.7597L91.3153 35.18L91.5825 38.0718C91.8762 41.2507 92.3362 42.1346 93.6033 41.9523C94.5366 41.8181 94.5731 40.9657 93.946 33.9505C93.6515 30.6577 93.5961 30.5101 92.6086 30.3941C91.7717 30.2963 91.2273 30.7138 89.7119 32.6171ZM48.9579 31.1677C48.6285 31.4992 48.6602 32.0472 49.0784 33.2395C49.8153 35.3404 49.7972 37.1143 49.0158 39.4303C48.234 41.7466 48.479 42.5347 49.9285 42.3642C50.8401 42.2571 51.1141 41.9228 51.6083 40.3162C52.1808 38.4538 52.2454 38.3964 53.7725 38.3964C54.9898 38.3964 55.3928 38.5734 55.5494 39.1768C55.899 40.5207 58.0837 40.682 58.0837 39.3636C58.0837 38.9667 58.6116 38.8006 59.8735 38.8006C61.5942 38.8006 61.6729 38.8539 61.922 40.1889C62.2611 42.0077 63.4977 43.1782 64.435 42.5675C64.8086 42.3237 65.0416 41.7854 64.9524 41.3719C64.754 40.4504 64.766 33.3248 64.9681 31.9296C65.0898 31.0889 64.9331 30.8982 64.0364 30.7939C62.7492 30.6443 62.3005 31.3282 61.8935 34.0564C61.5645 36.2652 61.3005 36.5291 59.7638 36.1896C59.0069 36.0223 58.5039 35.5506 58.1898 34.714C57.5747 33.0738 55.9399 33.1716 55.7471 34.8599C55.633 35.8562 55.4607 35.9713 54.0843 35.9713C52.6303 35.9713 52.5335 35.8913 52.2687 34.4698C51.6846 31.3387 50.2299 29.8881 48.9579 31.1677ZM70.7188 31.2858C69.2668 31.9219 67.4248 34.0111 67.0733 35.4205C66.6992 36.9195 67.1412 39.4125 67.9844 40.5623C69.4773 42.5978 73.2747 43.417 75.8612 42.2615C76.3517 42.0424 76.5642 42.1253 76.5642 42.5355C76.5642 42.8589 75.8764 43.4356 75.0364 43.8168C69.4119 46.3683 67.2834 54.1511 71.7786 55.7277C75.5056 57.0348 78.6883 53.5286 79.2479 47.5C79.4729 45.0778 79.5581 44.8979 80.5375 44.7835C81.3547 44.6882 81.5861 44.4388 81.5861 43.6547C81.5861 42.852 81.3419 42.6058 80.3809 42.4401C79.45 42.2797 79.1571 42.0024 79.0945 41.2236C79.0499 40.6691 78.8964 38.4291 78.7534 36.2466C78.5935 33.7993 78.3167 32.2287 78.031 32.1495C77.7767 32.0787 76.5988 31.7275 75.4132 31.369C72.8444 30.5918 72.3229 30.5829 70.7188 31.2858ZM28.5731 33.326C29.8073 34.5672 29.8824 36.6617 28.7454 38.1159C27.7386 39.4036 26.7507 39.7439 25.4563 39.2488C22.9249 38.2804 22.352 35.7527 24.1715 33.5774C25.4832 32.0092 27.169 31.913 28.5731 33.326ZM43.0928 34.0208C45.1561 35.9713 43.556 39.7706 40.6706 39.7706C37.5743 39.7706 36.0356 36.2902 38.1789 34.1344C39.471 32.8341 41.7806 32.7808 43.0928 34.0208ZM75.2585 34.6121C76.2722 35.7337 76.3642 36.481 75.7185 38.3446C74.9375 40.5983 72.4262 41.1411 70.7208 39.425C69.0173 37.7117 69.6666 34.4383 71.8866 33.5467C73.0682 33.0722 74.1863 33.4255 75.2585 34.6121ZM29.5594 45.6517C29.5594 47.1775 28.5128 50.3458 27.68 51.3417C25.8637 53.5133 24.3595 52.4657 25.1839 49.6025C25.6061 48.1358 26.4763 46.9871 27.9415 45.9621C29.058 45.1808 29.5594 45.0846 29.5594 45.6517ZM76.3626 48.1976C75.9291 51.5146 74.3064 53.8063 72.8022 53.2259C71.274 52.6358 72.3181 49.0423 74.5719 47.1342C76.3983 45.5878 76.6815 45.756 76.3626 48.1976Z" fill="white"/>
<path d="M117.26 16.2679C116.424 17.2124 114.573 19.1678 113.145 20.6127L110.55 23.2399L110.215 20.0303C109.859 16.611 109.466 15.7627 108.241 15.7627C107.122 15.7627 107.041 16.3281 107.46 21.1834C108.051 28.0322 108.932 28.2399 114.604 22.868L118.213 19.4499L118.9 21.0153C119.612 22.6389 122.163 24.8568 122.735 25.2609C123.569 25.8672 123.37 25.8672 124.342 26.4734C125.178 26.9951 125.369 27.4837 125.575 27.4837C125.782 27.4837 126.412 26.8019 126.975 25.968L128 24.4524L127.121 24.0563C126.489 23.7714 126.351 23.8462 125.748 23.6442C125.145 23.4421 124.557 23.2047 123.555 22.1955C121.834 20.4628 120.757 18.1938 120.757 16.3018C120.757 15.4106 120.034 14.5501 119.286 14.5501C119.008 14.5501 118.096 15.3233 117.26 16.2679Z" fill="white"/>
<path d="M112.725 13.3403C111.022 12.4232 109.999 8.15431 111.194 6.95189C111.797 6.34523 112.406 6.33997 113.694 6.93047C114.473 7.28776 114.846 7.27725 115.315 6.8852C116.212 6.13708 117.885 6.69888 118.171 7.84431C118.767 10.2322 114.657 14.3802 112.725 13.3403Z" fill="#DB2135"/>
</svg>
