<svg width="119" height="40" viewBox="0 0 119 40" fill="none" xmlns="http://www.w3.org/2000/svg">
<g clip-path="url(#clip0_1585_3322)">
<path d="M109.537 0.00013H9.64349C9.27936 0.00013 8.91961 0.00013 8.55645 0.00213C8.25245 0.00413 7.95087 0.00994 7.64395 0.01483C6.97718 0.0227318 6.31198 0.0818063 5.65413 0.19154C4.9972 0.303663 4.36085 0.515046 3.7666 0.81854C3.17308 1.1246 2.63076 1.5223 2.15932 1.9972C1.6854 2.47077 1.29036 3.01815 0.989376 3.61829C0.687561 4.21724 0.478282 4.85907 0.368766 5.52161C0.258209 6.18332 0.198717 6.85265 0.190825 7.52361C0.18161 7.83021 0.180637 8.13783 0.175781 8.44447V31.5587C0.180637 31.8692 0.18161 32.17 0.190825 32.4806C0.19872 33.1516 0.258212 33.8209 0.368766 34.4825C0.477979 35.1455 0.687271 35.7877 0.989376 36.3868C1.29022 36.985 1.68532 37.5302 2.15932 38.0011C2.62897 38.4781 3.17164 38.8761 3.7666 39.1798C4.36084 39.4841 4.99713 39.6968 5.65413 39.8106C6.31209 39.9195 6.97723 39.9786 7.64395 39.9874C7.95087 39.9942 8.25245 39.9981 8.55645 39.9981C8.9196 40.0001 9.27938 40.0001 9.64349 40.0001H109.537C109.894 40.0001 110.256 40.0001 110.613 39.9981C110.916 39.9981 111.226 39.9942 111.529 39.9874C112.194 39.9791 112.858 39.92 113.515 39.8106C114.174 39.696 114.812 39.4834 115.409 39.1798C116.004 38.8759 116.546 38.478 117.015 38.0011C117.488 37.5284 117.884 36.9836 118.189 36.3868C118.488 35.7872 118.696 35.1451 118.803 34.4825C118.914 33.8208 118.976 33.1516 118.988 32.4806C118.992 32.17 118.992 31.8692 118.992 31.5587C118.999 31.1954 118.999 30.8341 118.999 30.4649V9.53626C118.999 9.17005 118.999 8.80677 118.992 8.44447C118.992 8.13783 118.992 7.83021 118.988 7.52357C118.976 6.85255 118.914 6.18337 118.803 5.52157C118.695 4.85941 118.488 4.21763 118.189 3.61825C117.576 2.41533 116.604 1.43616 115.409 0.81845C114.812 0.515697 114.174 0.30437 113.515 0.19145C112.858 0.0812328 112.194 0.0221378 111.529 0.01469C111.226 0.00981 110.916 0.00395 110.613 0.002C110.256 0 109.894 0.00013 109.537 0.00013Z" fill="#A6A6A6"/>
<path d="M8.5616 39.125C8.25906 39.125 7.96383 39.1211 7.66366 39.1143C7.04185 39.1061 6.42148 39.0516 5.80765 38.9512C5.23529 38.8519 4.68083 38.6673 4.16255 38.4033C3.64903 38.1415 3.18065 37.7983 2.77536 37.3867C2.36421 36.98 2.02191 36.5082 1.76202 35.9902C1.49927 35.4688 1.31743 34.9099 1.22284 34.333C1.12068 33.7131 1.06541 33.0863 1.05751 32.458C1.05121 32.2471 1.04297 31.5449 1.04297 31.5449V8.44434C1.04297 8.44434 1.05175 7.75293 1.05756 7.5498C1.06513 6.92248 1.12008 6.29665 1.22192 5.67773C1.31669 5.09925 1.49867 4.53875 1.76157 4.01563C2.0205 3.49794 2.3609 3.02586 2.76958 2.61768C3.17779 2.20562 3.64767 1.8606 4.16206 1.59521C4.67915 1.33209 5.23257 1.14873 5.80377 1.05127C6.41961 0.949836 7.04213 0.894996 7.66611 0.88721L8.56209 0.875H110.609L111.515 0.8877C112.134 0.895099 112.751 0.94945 113.361 1.05029C113.938 1.14898 114.497 1.33362 115.02 1.59814C116.051 2.13299 116.889 2.97916 117.418 4.01807C117.677 4.53758 117.856 5.09351 117.949 5.66699C118.053 6.29099 118.11 6.92174 118.122 7.5542C118.125 7.8374 118.125 8.1416 118.125 8.44434C118.133 8.81934 118.133 9.17627 118.133 9.53613V30.4648C118.133 30.8281 118.133 31.1826 118.125 31.54C118.125 31.8652 118.125 32.1631 118.121 32.4697C118.109 33.0909 118.053 33.7104 117.951 34.3232C117.859 34.9043 117.678 35.4675 117.415 35.9932C117.153 36.5056 116.813 36.9733 116.407 37.3789C116.001 37.7927 115.532 38.1379 115.017 38.4014C114.496 38.6674 113.937 38.8527 113.361 38.9512C112.747 39.0522 112.127 39.1067 111.505 39.1143C111.214 39.1211 110.909 39.125 110.614 39.125L109.537 39.127L8.5616 39.125Z" fill="black"/>
<path d="M24.7715 20.3013C24.7822 19.4666 25.0023 18.6483 25.4115 17.9223C25.8206 17.1964 26.4054 16.5864 27.1115 16.1492C26.6629 15.5041 26.0712 14.9731 25.3832 14.5986C24.6953 14.224 23.9301 14.0162 23.1484 13.9916C21.4809 13.8153 19.8644 14.9964 19.0147 14.9964C18.1486 14.9964 16.8403 14.0091 15.4316 14.0383C14.5203 14.0679 13.6323 14.3348 12.8539 14.8128C12.0755 15.2909 11.4334 15.9638 10.9901 16.7661C9.06965 20.1145 10.5021 25.0356 12.3417 27.7422C13.2621 29.0676 14.3378 30.548 15.7453 30.4955C17.1226 30.438 17.637 29.611 19.2995 29.611C20.9466 29.611 21.4292 30.4955 22.8653 30.4621C24.3432 30.438 25.2744 29.1309 26.1625 27.793C26.8238 26.8486 27.3326 25.8049 27.6702 24.7005C26.8116 24.3347 26.0789 23.7226 25.5634 22.9403C25.0479 22.158 24.7725 21.2402 24.7715 20.3013Z" fill="white"/>
<path d="M22.0597 12.2113C22.8655 11.2371 23.2625 9.98494 23.1664 8.7207C21.9353 8.85092 20.798 9.44348 19.9813 10.3803C19.582 10.838 19.2762 11.3704 19.0813 11.9472C18.8864 12.524 18.8064 13.1337 18.8457 13.7417C19.4614 13.7481 20.0706 13.6137 20.6274 13.3486C21.1841 13.0835 21.6738 12.6946 22.0597 12.2113Z" fill="white"/>
<path d="M42.183 27.1397H37.4828L36.3541 30.4961H34.3633L38.8152 18.0781H40.8836L45.3355 30.4961H43.3107L42.183 27.1397ZM37.9696 25.5908H41.6952L39.8586 20.1436H39.8072L37.9696 25.5908Z" fill="white"/>
<path d="M54.9489 25.9695C54.9489 28.7829 53.4536 30.5905 51.1971 30.5905C50.6255 30.6207 50.057 30.4881 49.5568 30.2079C49.0565 29.9278 48.6447 29.5114 48.3685 29.0065H48.3258V33.4909H46.4805V21.4421H48.2667V22.948H48.3006C48.5895 22.4455 49.0083 22.0313 49.5124 21.7495C50.0164 21.4676 50.5869 21.3287 51.1632 21.3474C53.4449 21.3474 54.9489 23.1638 54.9489 25.9695ZM53.0522 25.9695C53.0522 24.1365 52.1116 22.9314 50.6764 22.9314C49.2664 22.9314 48.3181 24.1618 48.3181 25.9695C48.3181 27.7937 49.2664 29.0154 50.6764 29.0154C52.1116 29.0154 53.0522 27.8191 53.0522 25.9695Z" fill="white"/>
<path d="M64.8434 25.9694C64.8434 28.7829 63.3482 30.5905 61.0917 30.5905C60.5201 30.6206 59.9516 30.488 59.4513 30.2079C58.9511 29.9278 58.5393 29.5114 58.263 29.0065H58.2203V33.4909H56.375V21.4421H58.1612V22.948H58.1951C58.484 22.4455 58.9028 22.0313 59.4069 21.7495C59.9109 21.4676 60.4814 21.3287 61.0577 21.3474C63.3394 21.3474 64.8434 23.1638 64.8434 25.9694ZM62.9467 25.9694C62.9467 24.1364 62.0061 22.9314 60.5709 22.9314C59.161 22.9314 58.2126 24.1618 58.2126 25.9694C58.2126 27.7937 59.161 29.0153 60.5709 29.0153C62.0061 29.0153 62.9467 27.8191 62.9467 25.9694Z" fill="white"/>
<path d="M70.889 27.1651C71.0257 28.3965 72.2136 29.2051 73.8369 29.2051C75.3923 29.2051 76.5113 28.3965 76.5113 27.2861C76.5113 26.3223 75.8364 25.7451 74.2384 25.3496L72.6403 24.9619C70.376 24.4111 69.3249 23.3447 69.3249 21.6143C69.3249 19.4717 71.179 18 73.8117 18C76.4173 18 78.2035 19.4717 78.2636 21.6143H76.4008C76.2893 20.375 75.272 19.627 73.7855 19.627C72.2989 19.627 71.2817 20.3838 71.2817 21.4854C71.2817 22.3633 71.9314 22.8799 73.5208 23.2754L74.8793 23.6113C77.4093 24.2138 78.4604 25.2373 78.4604 27.0537C78.4604 29.3769 76.6228 30.832 73.7002 30.832C70.9656 30.832 69.1193 29.4111 69 27.165L70.889 27.1651Z" fill="white"/>
<path d="M82.9386 19.2998V21.4424H84.6482V22.9141H82.9386V27.9053C82.9386 28.6807 83.2809 29.042 84.0324 29.042C84.2353 29.0384 84.438 29.0241 84.6394 28.999V30.4619C84.3015 30.5255 83.9581 30.5543 83.6145 30.5478C81.7943 30.5478 81.0845 29.8593 81.0845 28.1035V22.9141H79.7773V21.4424H81.0845V19.2998H82.9386Z" fill="white"/>
<path d="M85.6367 25.9697C85.6367 23.1211 87.3027 21.3311 89.9005 21.3311C92.5071 21.3311 94.1653 23.1211 94.1653 25.9697C94.1653 28.8262 92.5158 30.6084 89.9005 30.6084C87.2861 30.6084 85.6367 28.8262 85.6367 25.9697ZM92.285 25.9697C92.285 24.0156 91.3958 22.8623 89.9005 22.8623C88.4052 22.8623 87.517 24.0244 87.517 25.9697C87.517 27.9316 88.4052 29.0762 89.9005 29.0762C91.3958 29.0762 92.285 27.9316 92.285 25.9697Z" fill="white"/>
<path d="M95.6875 21.442H97.4475V22.983H97.4902C97.6093 22.5017 97.8893 22.0764 98.2831 21.7785C98.6769 21.4806 99.1605 21.3284 99.6527 21.3473C99.8653 21.3465 100.077 21.3698 100.285 21.4166V23.1549C100.016 23.0723 99.7364 23.0343 99.4558 23.0426C99.1877 23.0316 98.9204 23.0792 98.6723 23.1821C98.4242 23.285 98.2012 23.4408 98.0185 23.6386C97.8358 23.8365 97.6978 24.0719 97.614 24.3286C97.5302 24.5852 97.5025 24.8571 97.5328 25.1256V30.4957H95.6875L95.6875 21.442Z" fill="white"/>
<path d="M108.793 27.8369C108.545 29.4805 106.956 30.6084 104.922 30.6084C102.307 30.6084 100.684 28.8437 100.684 26.0127C100.684 23.1729 102.316 21.3311 104.845 21.3311C107.332 21.3311 108.896 23.0518 108.896 25.7969V26.4336H102.546V26.5459C102.517 26.8791 102.559 27.2148 102.668 27.5306C102.777 27.8464 102.952 28.1352 103.181 28.3778C103.41 28.6203 103.687 28.8111 103.995 28.9374C104.302 29.0637 104.633 29.1226 104.965 29.1103C105.401 29.1515 105.839 29.0498 106.213 28.8203C106.587 28.5909 106.877 28.246 107.041 27.8369L108.793 27.8369ZM102.555 25.1348H107.05C107.066 24.8352 107.021 24.5354 106.917 24.2541C106.813 23.9729 106.653 23.7164 106.446 23.5006C106.239 23.2849 105.99 23.1145 105.714 23.0003C105.438 22.8861 105.142 22.8305 104.845 22.8369C104.544 22.8351 104.246 22.8933 103.968 23.008C103.69 23.1227 103.437 23.2918 103.224 23.5054C103.012 23.7191 102.843 23.973 102.728 24.2527C102.613 24.5323 102.554 24.8321 102.555 25.1348Z" fill="white"/>
<path d="M36.6572 11.2534H37.4495C37.5859 11.2705 37.7243 11.259 37.856 11.2195C37.9877 11.1801 38.1099 11.1136 38.2149 11.0242C38.3198 10.9349 38.4053 10.8246 38.4658 10.7003C38.5263 10.576 38.5606 10.4405 38.5666 10.3022C38.5666 9.75193 38.1554 9.39646 37.4582 9.39646C37.3185 9.3768 37.1763 9.38553 37.0399 9.42214C36.9036 9.45875 36.776 9.52249 36.6645 9.60961C36.5531 9.69672 36.4601 9.80544 36.391 9.92935C36.322 10.0533 36.2783 10.1898 36.2626 10.331H35.3927C35.4077 10.0747 35.4749 9.82428 35.5901 9.59527C35.7054 9.36626 35.8662 9.16359 36.0626 8.99989C36.259 8.83618 36.4867 8.71494 36.7317 8.64372C36.9766 8.5725 37.2335 8.55282 37.4863 8.58591C38.6528 8.58591 39.4742 9.24362 39.4742 10.1904C39.477 10.5076 39.3716 10.8161 39.1757 11.0645C38.9798 11.3129 38.7052 11.486 38.3979 11.5551V11.6255C38.7623 11.6417 39.1055 11.8027 39.3524 12.073C39.5994 12.3434 39.73 12.7013 39.7157 13.0683C39.6887 13.3322 39.6097 13.588 39.4833 13.8208C39.3569 14.0535 39.1856 14.2585 38.9795 14.4237C38.7734 14.5889 38.5366 14.7111 38.2831 14.7829C38.0295 14.8548 37.7642 14.875 37.5028 14.8423C37.2409 14.8782 36.9744 14.8607 36.7193 14.7907C36.4642 14.7208 36.2257 14.5998 36.018 14.4351C35.8104 14.2703 35.6377 14.0651 35.5105 13.8317C35.3832 13.5983 35.3039 13.3415 35.2773 13.0766H36.1607C36.2141 13.6474 36.7348 14.0156 37.5028 14.0156C38.2708 14.0156 38.7722 13.6021 38.7722 13.0191C38.7722 12.4277 38.2999 12.0635 37.4747 12.0635H36.6572V11.2534Z" fill="white"/>
<path d="M40.7188 13.4238C40.7188 12.6133 41.319 12.146 42.3818 12.0796L43.5929 12.0093V11.6206C43.5929 11.145 43.2817 10.8765 42.6776 10.8765C42.1849 10.8765 41.8446 11.0586 41.7457 11.377H40.8914C40.9815 10.6035 41.7049 10.1074 42.7192 10.1074C43.8402 10.1074 44.4725 10.6694 44.4725 11.6206V14.6973H43.622V14.0645H43.5522C43.4105 14.2914 43.2115 14.4765 42.9756 14.6007C42.7396 14.7249 42.4751 14.7838 42.2092 14.7715C42.0215 14.7911 41.8318 14.7709 41.6523 14.7122C41.4728 14.6536 41.3075 14.5576 41.1671 14.4307C41.0267 14.3037 40.9142 14.1485 40.837 13.9751C40.7598 13.8017 40.7195 13.6139 40.7188 13.4238ZM43.5929 13.0391V12.6626L42.501 12.7329C41.8853 12.7744 41.606 12.9853 41.606 13.3823C41.606 13.7876 41.9551 14.0234 42.4351 14.0234C42.5758 14.0378 42.7179 14.0235 42.8529 13.9814C42.988 13.9393 43.1132 13.8703 43.2213 13.7784C43.3293 13.6866 43.4179 13.5738 43.4817 13.4468C43.5456 13.3198 43.5834 13.1811 43.5929 13.0391Z" fill="white"/>
<path d="M46.816 10.9424V14.6973H45.9336V10.1943H48.8776V10.9423L46.816 10.9424Z" fill="white"/>
<path d="M54.2224 12.4448C54.2224 13.8754 53.5039 14.7724 52.3751 14.7724C52.0981 14.7915 51.8213 14.7304 51.5776 14.5964C51.3338 14.4624 51.1331 14.2611 50.9991 14.0161H50.9293V16.1953H50.0469V10.1953H50.8963V10.9394H50.9623C51.0987 10.6859 51.302 10.4752 51.5497 10.3307C51.7975 10.1862 52.0802 10.1135 52.3664 10.1206C53.5039 10.1206 54.2224 11.0136 54.2224 12.4448ZM53.3148 12.4448C53.3148 11.4936 52.8677 10.9189 52.1201 10.9189C51.3774 10.9189 50.9128 11.5058 50.9128 12.4487C50.9128 13.3872 51.3773 13.9746 52.1162 13.9746C52.8677 13.9746 53.3148 13.3999 53.3148 12.4448Z" fill="white"/>
<path d="M55.4011 16.3101V15.5449C55.4966 15.5571 55.5928 15.5627 55.6891 15.5615C55.8771 15.5755 56.0636 15.5192 56.2129 15.4032C56.3621 15.2872 56.4636 15.1198 56.4978 14.9331L56.5637 14.7139L54.9453 10.1943H55.9063L57.0273 13.771H57.0971L58.2142 10.1943H59.15L57.4831 14.8833C57.101 15.979 56.6782 16.3306 55.7667 16.3306C55.693 16.3306 55.4835 16.3223 55.4011 16.3101Z" fill="white"/>
<path d="M59.8359 13.4195H60.7145C60.8008 13.8165 61.1703 14.0235 61.6871 14.0235C62.2747 14.0235 62.6355 13.7628 62.6355 13.3575C62.6355 12.9235 62.3116 12.7164 61.6871 12.7164H61.018V12.026H61.6755C62.2088 12.026 62.4803 11.8195 62.4803 11.443C62.4803 11.1124 62.2175 10.86 61.6755 10.86C61.1819 10.86 60.8212 11.0709 60.7639 11.4264H59.9135C59.9771 11.0179 60.1973 10.6509 60.5268 10.4043C60.8563 10.1577 61.2688 10.0511 61.6755 10.1076C62.7383 10.1076 63.3463 10.5914 63.3463 11.3522C63.3512 11.564 63.2838 11.7712 63.1553 11.939C63.0268 12.1068 62.845 12.2251 62.6403 12.2741V12.3444C62.884 12.376 63.1077 12.4967 63.269 12.6835C63.4302 12.8702 63.5178 13.1101 63.515 13.3576C63.515 14.2136 62.7916 14.7799 61.6871 14.7799C60.7106 14.7799 59.9174 14.3292 59.8359 13.4195Z" fill="white"/>
<path d="M64.7852 14.6973V10.1943H65.6598V13.2915H65.7296L67.7903 10.1943H68.6649V14.6973H67.7903V11.5835H67.7243L65.6598 14.6973L64.7852 14.6973Z" fill="white"/>
<path d="M73.4846 10.9433H72.0766V14.6982H71.1932V10.9433H69.7852V10.1953H73.4846V10.9433Z" fill="white"/>
<path d="M78.2378 13.4815C78.1176 13.893 77.8576 14.2489 77.5033 14.4871C77.149 14.7252 76.7229 14.8304 76.2994 14.7843C76.0048 14.7921 75.7121 14.7353 75.4415 14.6177C75.1709 14.5002 74.9289 14.3248 74.7324 14.1036C74.5359 13.8825 74.3895 13.621 74.3034 13.3371C74.2173 13.0533 74.1936 12.754 74.2339 12.46C74.1947 12.1652 74.2188 11.8652 74.3047 11.5805C74.3906 11.2959 74.5362 11.0331 74.7317 10.81C74.9272 10.587 75.168 10.4088 75.4378 10.2876C75.7076 10.1664 76.0001 10.105 76.2955 10.1075C77.5396 10.1075 78.2912 10.9635 78.2912 12.3775V12.6876H75.1338V12.7374C75.1198 12.9027 75.1403 13.0691 75.194 13.2259C75.2477 13.3827 75.3334 13.5265 75.4455 13.648C75.5577 13.7695 75.6938 13.866 75.8452 13.9313C75.9966 13.9967 76.1599 14.0294 76.3246 14.0274C76.5355 14.0528 76.7492 14.0145 76.9385 13.9173C77.1277 13.8201 77.284 13.6684 77.3874 13.4815L78.2378 13.4815ZM75.1338 12.0304H77.3912C77.4024 11.8793 77.3821 11.7276 77.3315 11.5849C77.281 11.4422 77.2014 11.3118 77.0978 11.202C76.9943 11.0921 76.8691 11.0053 76.7302 10.9471C76.5914 10.8888 76.442 10.8605 76.2916 10.8639C76.1389 10.8618 75.9874 10.8905 75.846 10.9484C75.7045 11.0063 75.576 11.0921 75.4681 11.2009C75.3602 11.3096 75.275 11.4391 75.2176 11.5815C75.1601 11.724 75.1316 11.8766 75.1338 12.0304Z" fill="white"/>
<path d="M81.9805 10.1943H83.9965C84.8712 10.1943 85.3841 10.6406 85.3841 11.3393C85.3855 11.561 85.3112 11.7765 85.1737 11.9496C85.0362 12.1228 84.8438 12.2431 84.6287 12.2905V12.3608C84.8899 12.3774 85.1347 12.4944 85.3126 12.6876C85.4905 12.8808 85.588 13.1354 85.5849 13.3989C85.5849 14.1845 84.9982 14.6972 84.0168 14.6972H81.9805V10.1943ZM82.8551 10.8765V12.0425H83.7298C84.2632 12.0425 84.5182 11.8359 84.5182 11.4551C84.5182 11.104 84.2961 10.8765 83.8278 10.8765L82.8551 10.8765ZM82.8551 12.6958V14.0151H83.9015C84.4232 14.0151 84.7025 13.7832 84.7025 13.3574C84.7025 12.9068 84.3863 12.6958 83.7909 12.6958L82.8551 12.6958Z" fill="white"/>
</g>
<defs>
<clipPath id="clip0_1585_3322">
<rect width="118.824" height="40" fill="white" transform="translate(0.175781)"/>
</clipPath>
</defs>
</svg>
