<svg width="132" height="50" viewBox="0 0 132 50" fill="none" xmlns="http://www.w3.org/2000/svg">
<g clip-path="url(#clip0_1585_3362)">
<path d="M96.8265 0H116.698C125.013 0 131.762 6.75036 131.762 15.0636V34.9352C131.762 43.2496 125.011 49.9988 116.698 49.9988H96.8253C88.5109 49.9988 81.7617 43.2484 81.7617 34.9352V15.0636C81.7617 6.74914 88.5121 0 96.8253 0H96.8265Z" fill="#5935BF"/>
<path d="M131.763 34.9365V30.1626C128.906 32.8186 125.402 34.7401 121.99 35.3086C118.814 35.832 116.363 35.4294 114.515 34.4241C118.293 32.6161 121.628 30.2846 123.96 27.6725C128.461 22.6888 128.783 16.0568 124.764 12.2393C121.106 8.70248 114.314 9.14413 109.974 13.3642C105.07 17.9466 103.543 25.8242 105.834 31.9731C100.649 33.2187 95.5055 33.0577 92.6518 31.1691C96.1887 29.5611 99.0826 27.592 100.931 25.3411C103.785 21.8848 104.105 16.2178 101.052 13.3239C97.5148 9.98838 91.2049 10.9925 87.6681 15.3735C85.1768 18.4687 83.8092 23.5721 84.9755 28.3558C83.9226 28.6266 82.8466 28.8743 81.7656 29.0841V34.5449C83.6933 34.1838 85.5806 33.7421 87.3862 33.1797C91.4452 37.8817 99.8048 39.2493 108.728 36.636C111.823 39.9313 116.767 41.7406 123.76 40.4144C126.472 39.8959 129.13 38.8272 131.579 37.3058C131.701 36.5335 131.766 35.743 131.766 34.9377L131.763 34.9365ZM91.9662 18.4272C93.4937 16.5387 95.9849 16.0153 97.3111 17.2219C98.4372 18.3065 98.1553 20.4366 96.4668 22.4875C95.1004 24.1357 92.8495 25.5412 90.0361 26.7075C89.553 23.8539 90.1569 20.5977 91.965 18.4272H91.9662ZM113.348 17.7038C115.921 15.0112 119.257 14.6488 120.865 16.1763C122.794 17.9856 122.352 21.4419 119.579 24.4968C117.247 27.0284 114.274 28.8779 110.978 30.2443C109.329 26.1451 110.456 20.6782 113.349 17.705L113.348 17.7038Z" fill="white"/>
<path d="M25.0403 25.1911C25.0403 18.8507 29.2908 14.7295 35.7276 14.7295C42.1645 14.7295 46.1722 18.5335 46.2527 24.5177C46.2527 25.1118 46.2125 25.7853 46.0905 26.4197H30.9903V26.6966C31.1123 29.5893 33.0143 31.3327 35.8887 31.3327C38.1957 31.3327 39.8159 30.3421 40.3015 28.4401H45.9282C45.2804 32.4027 41.6777 35.5735 36.1315 35.5735C29.2091 35.5735 25.0391 31.4913 25.0391 25.1911H25.0403ZM40.504 22.7743C40.099 20.2781 38.358 18.891 35.7679 18.891C33.1778 18.891 31.4368 20.3574 31.1123 22.7743H40.504Z" fill="white"/>
<path d="M57.6213 15.0012C63.4505 15.0012 66.8105 17.5376 66.8105 22.4116V29.6244C66.8105 30.6943 67.2558 30.8932 68.1464 30.8932H68.7942V35.6085H65.8796C62.9247 35.6085 61.9938 34.2214 62.0341 32.2791C60.5762 34.5374 58.4716 35.8452 55.2325 35.8452C50.7391 35.8452 47.5 33.7444 47.5 29.861C47.5 25.5422 50.8197 23.0851 57.054 23.0851H61.1825V22.0944C61.1825 20.2717 59.8466 19.0822 57.4578 19.0822C55.2313 19.0822 53.7331 20.0728 53.4903 21.5783H47.9843C48.3894 17.6157 52.1129 15 57.6188 15L57.6213 15.0012ZM56.3256 31.8033C59.3208 31.8033 61.1435 29.9806 61.1837 27.2063V26.8098H57.0137C54.6249 26.8098 53.2487 27.7614 53.2487 29.4645C53.2487 30.8907 54.4224 31.8021 56.3256 31.8021V31.8033Z" fill="white"/>
<path d="M78.1213 7.5957V35.3365H72.4141V7.5957H78.1213Z" fill="white"/>
<path d="M9.96755 14.6291C12.9017 14.6291 15.5943 16.0358 16.4788 18.0049V7.5957H22.0652V35.2474H16.4788V32.5951C15.4332 34.4434 12.7004 35.7696 9.96755 35.7696C4.34082 35.7684 0 31.1872 0 25.1993C0 19.2115 4.34082 14.6291 9.96755 14.6291ZM5.58646 25.1993C5.58646 28.2543 8.03748 30.7053 11.0924 30.7053C14.1473 30.7053 16.6386 28.2543 16.6386 25.1993C16.6386 22.1444 14.1461 19.6531 11.0924 19.6531C8.0387 19.6531 5.58646 22.1444 5.58646 25.1993Z" fill="white"/>
</g>
<defs>
<clipPath id="clip0_1585_3362">
<rect width="131.762" height="50" fill="white"/>
</clipPath>
</defs>
</svg>
