<svg width="106" height="40" viewBox="0 0 106 40" fill="none" xmlns="http://www.w3.org/2000/svg">
<g clip-path="url(#clip0_1585_3081)">
<path d="M77.462 0H93.3593C100.011 0 105.41 5.40029 105.41 12.0509V27.9482C105.41 34.5997 100.01 39.999 93.3593 39.999H77.461C70.8095 39.999 65.4102 34.5987 65.4102 27.9482V12.0509C65.4102 5.39931 70.8104 0 77.461 0H77.462Z" fill="#5935BF"/>
<path d="M105.408 27.9492V24.1301C103.122 26.2549 100.319 27.7921 97.5894 28.2469C95.0488 28.6656 93.088 28.3435 91.6093 27.5393C94.632 26.0928 97.3005 24.2277 99.1656 22.138C102.766 18.151 103.024 12.8454 99.8088 9.79145C96.8827 6.96198 91.4492 7.3153 87.9766 10.6913C84.054 14.3572 82.832 20.6594 84.665 25.5785C80.5169 26.575 76.402 26.4462 74.1191 24.9353C76.9486 23.6489 79.2637 22.0736 80.7424 20.2729C83.0253 17.5078 83.282 12.9742 80.839 10.6591C78.0095 7.9907 72.9616 8.79396 70.1321 12.2988C68.1391 14.775 67.045 18.8576 67.9781 22.6846C67.1357 22.9013 66.2749 23.0994 65.4102 23.2673V27.6359C66.9523 27.347 68.4622 26.9937 69.9067 26.5438C73.1539 30.3053 79.8415 31.3994 86.9801 29.3088C89.4562 31.945 93.411 33.3925 99.0056 32.3315C101.175 31.9167 103.302 31.0617 105.261 29.8446C105.358 29.2268 105.41 28.5944 105.41 27.9502L105.408 27.9492ZM73.5706 14.7418C74.7926 13.2309 76.7856 12.8122 77.8465 13.7775C78.7474 14.6452 78.5219 16.3493 77.1711 17.99C76.078 19.3086 74.2772 20.4329 72.0266 21.366C71.6401 19.0831 72.1232 16.4781 73.5696 14.7418H73.5706ZM90.6762 14.163C92.7347 12.009 95.4031 11.7191 96.6895 12.941C98.2325 14.3885 97.8792 17.1535 95.6608 19.5975C93.7956 21.6227 91.417 23.1023 88.7798 24.1955C87.4613 20.9161 88.3621 16.5425 90.6772 14.164L90.6762 14.163Z" fill="white"/>
<path d="M20.0322 20.1525C20.0322 15.0802 23.4327 11.7832 28.5821 11.7832C33.7316 11.7832 36.9378 14.8264 37.0022 19.6138C37.0022 20.0891 36.97 20.6278 36.8724 21.1354H24.7922V21.3569C24.8898 23.6711 26.4115 25.0658 28.7109 25.0658C30.5566 25.0658 31.8527 24.2733 32.2412 22.7517H36.7426C36.2243 25.9217 33.3421 28.4584 28.9052 28.4584C23.3673 28.4584 20.0312 25.1927 20.0312 20.1525H20.0322ZM32.4032 18.219C32.0792 16.2221 30.6864 15.1124 28.6143 15.1124C26.5422 15.1124 25.1495 16.2856 24.8898 18.219H32.4032Z" fill="white"/>
<path d="M46.097 12.001C50.7604 12.001 53.4484 14.0301 53.4484 17.9293V23.6995C53.4484 24.5554 53.8046 24.7145 54.5171 24.7145H55.0354V28.4868H52.7037C50.3398 28.4868 49.5951 27.3771 49.6273 25.8233C48.4609 27.6299 46.7773 28.6762 44.186 28.6762C40.5913 28.6762 38 26.9955 38 23.8888C38 20.4337 40.6557 18.468 45.6432 18.468H48.946V17.6755C48.946 16.2174 47.8773 15.2657 45.9662 15.2657C44.185 15.2657 42.9865 16.0583 42.7922 17.2627H38.3875C38.7115 14.0926 41.6903 12 46.0951 12L46.097 12.001ZM45.0605 25.4426C47.4566 25.4426 48.9148 23.9845 48.947 21.765V21.4478H45.611C43.6999 21.4478 42.599 22.2091 42.599 23.5716C42.599 24.7126 43.5379 25.4417 45.0605 25.4417V25.4426Z" fill="white"/>
<path d="M62.4955 6.07666V28.2693H57.9297V6.07666H62.4955Z" fill="white"/>
<path d="M7.97404 11.7034C10.3214 11.7034 12.4754 12.8287 13.183 14.404V6.07666H17.6522V28.198H13.183V26.0762C12.3466 27.5548 10.1603 28.6158 7.97404 28.6158C3.47266 28.6148 0 24.9499 0 20.1596C0 15.3693 3.47266 11.7034 7.97404 11.7034ZM4.46917 20.1596C4.46917 22.6035 6.42998 24.5643 8.87392 24.5643C11.3179 24.5643 13.3109 22.6035 13.3109 20.1596C13.3109 17.7156 11.3169 15.7226 8.87392 15.7226C6.43096 15.7226 4.46917 17.7156 4.46917 20.1596Z" fill="white"/>
</g>
<defs>
<clipPath id="clip0_1585_3081">
<rect width="105.41" height="40" fill="white"/>
</clipPath>
</defs>
</svg>
