<svg width="14" height="15" viewBox="0 0 14 15" fill="none" xmlns="http://www.w3.org/2000/svg">
<g clip-path="url(#clip0_1585_3443)">
<path d="M6.99886 0.5C4.32 0.5 2.14062 2.67969 2.14062 5.35862C2.14062 7.93732 6.54859 13.9621 6.73627 14.2172L6.91144 14.4556C6.93192 14.4836 6.96454 14.5 6.99886 14.5C7.03371 14.5 7.06612 14.4836 7.08681 14.4556L7.26187 14.2172C7.44966 13.9621 11.8575 7.93732 11.8575 5.35862C11.8575 2.67969 9.67779 0.5 6.99886 0.5ZM6.99886 3.61827C7.9587 3.61827 8.73921 4.39881 8.73921 5.35862C8.73921 6.31794 7.95867 7.09897 6.99886 7.09897C6.03958 7.09897 5.25851 6.31794 5.25851 5.35862C5.25851 4.39881 6.03955 3.61827 6.99886 3.61827Z" fill="black"/>
</g>
<defs>
<clipPath id="clip0_1585_3443">
<rect width="14" height="14" fill="white" transform="translate(0 0.5)"/>
</clipPath>
</defs>
</svg>
