<svg width="188" height="188" viewBox="0 0 188 188" fill="none" xmlns="http://www.w3.org/2000/svg">
<rect width="188" height="188" rx="15" fill="white"/>
<path d="M11.3945 11.3936H17.0915V17.0905H11.3945V11.3936Z" fill="black"/>
<path d="M17.0915 11.3936H22.7885V17.0905H17.0915V11.3936Z" fill="black"/>
<path d="M22.7885 11.3936H28.4854V17.0905H22.7885V11.3936Z" fill="black"/>
<path d="M28.4854 11.3936H34.1824V17.0905H28.4854V11.3936Z" fill="black"/>
<path d="M34.1824 11.3936H39.8794V17.0905H34.1824V11.3936Z" fill="black"/>
<path d="M39.8794 11.3936H45.5763V17.0905H39.8794V11.3936Z" fill="black"/>
<path d="M45.5763 11.3936H51.2733V17.0905H45.5763V11.3936Z" fill="black"/>
<path d="M56.9703 11.3936H62.6673V17.0905H56.9703V11.3936Z" fill="black"/>
<path d="M62.6673 11.3936H68.3642V17.0905H62.6673V11.3936Z" fill="black"/>
<path d="M96.8491 11.3936H102.546V17.0905H96.8491V11.3936Z" fill="black"/>
<path d="M125.334 11.3936H131.031V17.0905H125.334V11.3936Z" fill="black"/>
<path d="M136.728 11.3936H142.425V17.0905H136.728V11.3936Z" fill="black"/>
<path d="M142.425 11.3936H148.122V17.0905H142.425V11.3936Z" fill="black"/>
<path d="M148.122 11.3936H153.819V17.0905H148.122V11.3936Z" fill="black"/>
<path d="M153.819 11.3936H159.516V17.0905H153.819V11.3936Z" fill="black"/>
<path d="M159.516 11.3936H165.213V17.0905H159.516V11.3936Z" fill="black"/>
<path d="M165.213 11.3936H170.91V17.0905H165.213V11.3936Z" fill="black"/>
<path d="M170.91 11.3936H176.607V17.0905H170.91V11.3936Z" fill="black"/>
<path d="M11.3945 17.0905H17.0915V22.7875H11.3945V17.0905Z" fill="black"/>
<path d="M45.5763 17.0905H51.2733V22.7875H45.5763V17.0905Z" fill="black"/>
<path d="M56.9703 17.0905H62.6673V22.7875H56.9703V17.0905Z" fill="black"/>
<path d="M68.3642 17.0905H74.0612V22.7875H68.3642V17.0905Z" fill="black"/>
<path d="M74.0612 17.0905H79.7582V22.7875H74.0612V17.0905Z" fill="black"/>
<path d="M85.4551 17.0905H91.1521V22.7875H85.4551V17.0905Z" fill="black"/>
<path d="M102.546 17.0905H108.243V22.7875H102.546V17.0905Z" fill="black"/>
<path d="M125.334 17.0905H131.031V22.7875H125.334V17.0905Z" fill="black"/>
<path d="M136.728 17.0905H142.425V22.7875H136.728V17.0905Z" fill="black"/>
<path d="M170.91 17.0905H176.607V22.7875H170.91V17.0905Z" fill="black"/>
<path d="M11.3945 22.7875H17.0915V28.4845H11.3945V22.7875Z" fill="black"/>
<path d="M22.7885 22.7875H28.4854V28.4845H22.7885V22.7875Z" fill="black"/>
<path d="M28.4854 22.7875H34.1824V28.4845H28.4854V22.7875Z" fill="black"/>
<path d="M34.1824 22.7875H39.8794V28.4845H34.1824V22.7875Z" fill="black"/>
<path d="M45.5763 22.7875H51.2733V28.4845H45.5763V22.7875Z" fill="black"/>
<path d="M68.3642 22.7875H74.0612V28.4845H68.3642V22.7875Z" fill="black"/>
<path d="M85.4551 22.7875H91.1521V28.4845H85.4551V22.7875Z" fill="black"/>
<path d="M108.243 22.7875H113.94V28.4845H108.243V22.7875Z" fill="black"/>
<path d="M136.728 22.7875H142.425V28.4845H136.728V22.7875Z" fill="black"/>
<path d="M148.122 22.7875H153.819V28.4845H148.122V22.7875Z" fill="black"/>
<path d="M153.819 22.7875H159.516V28.4845H153.819V22.7875Z" fill="black"/>
<path d="M159.516 22.7875H165.213V28.4845H159.516V22.7875Z" fill="black"/>
<path d="M170.91 22.7875H176.607V28.4845H170.91V22.7875Z" fill="black"/>
<path d="M11.3945 28.4845H17.0915V34.1814H11.3945V28.4845Z" fill="black"/>
<path d="M22.7885 28.4845H28.4854V34.1814H22.7885V28.4845Z" fill="black"/>
<path d="M28.4854 28.4845H34.1824V34.1814H28.4854V28.4845Z" fill="black"/>
<path d="M34.1824 28.4845H39.8794V34.1814H34.1824V28.4845Z" fill="black"/>
<path d="M45.5763 28.4845H51.2733V34.1814H45.5763V28.4845Z" fill="black"/>
<path d="M56.9703 28.4845H62.6673V34.1814H56.9703V28.4845Z" fill="black"/>
<path d="M68.3642 28.4845H74.0612V34.1814H68.3642V28.4845Z" fill="black"/>
<path d="M74.0612 28.4845H79.7582V34.1814H74.0612V28.4845Z" fill="black"/>
<path d="M91.1521 28.4845H96.8491V34.1814H91.1521V28.4845Z" fill="black"/>
<path d="M96.8491 28.4845H102.546V34.1814H96.8491V28.4845Z" fill="black"/>
<path d="M102.546 28.4845H108.243V34.1814H102.546V28.4845Z" fill="black"/>
<path d="M113.94 28.4845H119.637V34.1814H113.94V28.4845Z" fill="black"/>
<path d="M119.637 28.4845H125.334V34.1814H119.637V28.4845Z" fill="black"/>
<path d="M136.728 28.4845H142.425V34.1814H136.728V28.4845Z" fill="black"/>
<path d="M148.122 28.4845H153.819V34.1814H148.122V28.4845Z" fill="black"/>
<path d="M153.819 28.4845H159.516V34.1814H153.819V28.4845Z" fill="black"/>
<path d="M159.516 28.4845H165.213V34.1814H159.516V28.4845Z" fill="black"/>
<path d="M170.91 28.4845H176.607V34.1814H170.91V28.4845Z" fill="black"/>
<path d="M11.3945 34.1814H17.0915V39.8784H11.3945V34.1814Z" fill="black"/>
<path d="M22.7885 34.1814H28.4854V39.8784H22.7885V34.1814Z" fill="black"/>
<path d="M28.4854 34.1814H34.1824V39.8784H28.4854V34.1814Z" fill="black"/>
<path d="M34.1824 34.1814H39.8794V39.8784H34.1824V34.1814Z" fill="black"/>
<path d="M45.5763 34.1814H51.2733V39.8784H45.5763V34.1814Z" fill="black"/>
<path d="M56.9703 34.1814H62.6673V39.8784H56.9703V34.1814Z" fill="black"/>
<path d="M68.3642 34.1814H74.0612V39.8784H68.3642V34.1814Z" fill="black"/>
<path d="M74.0612 34.1814H79.7582V39.8784H74.0612V34.1814Z" fill="black"/>
<path d="M91.1521 34.1814H96.8491V39.8784H91.1521V34.1814Z" fill="black"/>
<path d="M108.243 34.1814H113.94V39.8784H108.243V34.1814Z" fill="black"/>
<path d="M113.94 34.1814H119.637V39.8784H113.94V34.1814Z" fill="black"/>
<path d="M136.728 34.1814H142.425V39.8784H136.728V34.1814Z" fill="black"/>
<path d="M148.122 34.1814H153.819V39.8784H148.122V34.1814Z" fill="black"/>
<path d="M153.819 34.1814H159.516V39.8784H153.819V34.1814Z" fill="black"/>
<path d="M159.516 34.1814H165.213V39.8784H159.516V34.1814Z" fill="black"/>
<path d="M170.91 34.1814H176.607V39.8784H170.91V34.1814Z" fill="black"/>
<path d="M11.3945 39.8784H17.0915V45.5754H11.3945V39.8784Z" fill="black"/>
<path d="M45.5763 39.8784H51.2733V45.5754H45.5763V39.8784Z" fill="black"/>
<path d="M56.9703 39.8784H62.6673V45.5754H56.9703V39.8784Z" fill="black"/>
<path d="M79.7582 39.8784H85.4551V45.5754H79.7582V39.8784Z" fill="black"/>
<path d="M108.243 39.8784H113.94V45.5754H108.243V39.8784Z" fill="black"/>
<path d="M113.94 39.8784H119.637V45.5754H113.94V39.8784Z" fill="black"/>
<path d="M119.637 39.8784H125.334V45.5754H119.637V39.8784Z" fill="black"/>
<path d="M125.334 39.8784H131.031V45.5754H125.334V39.8784Z" fill="black"/>
<path d="M136.728 39.8784H142.425V45.5754H136.728V39.8784Z" fill="black"/>
<path d="M170.91 39.8784H176.607V45.5754H170.91V39.8784Z" fill="black"/>
<path d="M11.3945 45.5754H17.0915V51.2723H11.3945V45.5754Z" fill="black"/>
<path d="M17.0915 45.5754H22.7885V51.2723H17.0915V45.5754Z" fill="black"/>
<path d="M22.7885 45.5754H28.4854V51.2723H22.7885V45.5754Z" fill="black"/>
<path d="M28.4854 45.5754H34.1824V51.2723H28.4854V45.5754Z" fill="black"/>
<path d="M34.1824 45.5754H39.8794V51.2723H34.1824V45.5754Z" fill="black"/>
<path d="M39.8794 45.5754H45.5763V51.2723H39.8794V45.5754Z" fill="black"/>
<path d="M45.5763 45.5754H51.2733V51.2723H45.5763V45.5754Z" fill="black"/>
<path d="M56.9703 45.5754H62.6673V51.2723H56.9703V45.5754Z" fill="black"/>
<path d="M68.3642 45.5754H74.0612V51.2723H68.3642V45.5754Z" fill="black"/>
<path d="M79.7582 45.5754H85.4551V51.2723H79.7582V45.5754Z" fill="black"/>
<path d="M91.1521 45.5754H96.8491V51.2723H91.1521V45.5754Z" fill="black"/>
<path d="M102.546 45.5754H108.243V51.2723H102.546V45.5754Z" fill="black"/>
<path d="M113.94 45.5754H119.637V51.2723H113.94V45.5754Z" fill="black"/>
<path d="M125.334 45.5754H131.031V51.2723H125.334V45.5754Z" fill="black"/>
<path d="M136.728 45.5754H142.425V51.2723H136.728V45.5754Z" fill="black"/>
<path d="M142.425 45.5754H148.122V51.2723H142.425V45.5754Z" fill="black"/>
<path d="M148.122 45.5754H153.819V51.2723H148.122V45.5754Z" fill="black"/>
<path d="M153.819 45.5754H159.516V51.2723H153.819V45.5754Z" fill="black"/>
<path d="M159.516 45.5754H165.213V51.2723H159.516V45.5754Z" fill="black"/>
<path d="M165.213 45.5754H170.91V51.2723H165.213V45.5754Z" fill="black"/>
<path d="M170.91 45.5754H176.607V51.2723H170.91V45.5754Z" fill="black"/>
<path d="M68.3642 51.2723H74.0612V56.9693H68.3642V51.2723Z" fill="black"/>
<path d="M85.4551 51.2723H91.1521V56.9693H85.4551V51.2723Z" fill="black"/>
<path d="M91.1521 51.2723H96.8491V56.9693H91.1521V51.2723Z" fill="black"/>
<path d="M96.8491 51.2723H102.546V56.9693H96.8491V51.2723Z" fill="black"/>
<path d="M119.637 51.2723H125.334V56.9693H119.637V51.2723Z" fill="black"/>
<path d="M125.334 51.2723H131.031V56.9693H125.334V51.2723Z" fill="black"/>
<path d="M28.4854 56.9693H34.1824V62.6663H28.4854V56.9693Z" fill="black"/>
<path d="M45.5763 56.9693H51.2733V62.6663H45.5763V56.9693Z" fill="black"/>
<path d="M74.0612 56.9693H79.7582V62.6663H74.0612V56.9693Z" fill="black"/>
<path d="M79.7582 56.9693H85.4551V62.6663H79.7582V56.9693Z" fill="black"/>
<path d="M102.546 56.9693H108.243V62.6663H102.546V56.9693Z" fill="black"/>
<path d="M108.243 56.9693H113.94V62.6663H108.243V56.9693Z" fill="black"/>
<path d="M119.637 56.9693H125.334V62.6663H119.637V56.9693Z" fill="black"/>
<path d="M142.425 56.9693H148.122V62.6663H142.425V56.9693Z" fill="black"/>
<path d="M148.122 56.9693H153.819V62.6663H148.122V56.9693Z" fill="black"/>
<path d="M153.819 56.9693H159.516V62.6663H153.819V56.9693Z" fill="black"/>
<path d="M165.213 56.9693H170.91V62.6663H165.213V56.9693Z" fill="black"/>
<path d="M170.91 56.9693H176.607V62.6663H170.91V56.9693Z" fill="black"/>
<path d="M28.4854 62.6663H34.1824V68.3633H28.4854V62.6663Z" fill="black"/>
<path d="M39.8794 62.6663H45.5763V68.3633H39.8794V62.6663Z" fill="black"/>
<path d="M56.9703 62.6663H62.6673V68.3633H56.9703V62.6663Z" fill="black"/>
<path d="M62.6673 62.6663H68.3642V68.3633H62.6673V62.6663Z" fill="black"/>
<path d="M68.3642 62.6663H74.0612V68.3633H68.3642V62.6663Z" fill="black"/>
<path d="M85.4551 62.6663H91.1521V68.3633H85.4551V62.6663Z" fill="black"/>
<path d="M108.243 62.6663H113.94V68.3633H108.243V62.6663Z" fill="black"/>
<path d="M119.637 62.6663H125.334V68.3633H119.637V62.6663Z" fill="black"/>
<path d="M125.334 62.6663H131.031V68.3633H125.334V62.6663Z" fill="black"/>
<path d="M136.728 62.6663H142.425V68.3633H136.728V62.6663Z" fill="black"/>
<path d="M142.425 62.6663H148.122V68.3633H142.425V62.6663Z" fill="black"/>
<path d="M159.516 62.6663H165.213V68.3633H159.516V62.6663Z" fill="black"/>
<path d="M165.213 62.6663H170.91V68.3633H165.213V62.6663Z" fill="black"/>
<path d="M170.91 62.6663H176.607V68.3633H170.91V62.6663Z" fill="black"/>
<path d="M11.3945 68.3633H17.0915V74.0602H11.3945V68.3633Z" fill="black"/>
<path d="M17.0915 68.3633H22.7885V74.0602H17.0915V68.3633Z" fill="black"/>
<path d="M22.7885 68.3633H28.4854V74.0602H22.7885V68.3633Z" fill="black"/>
<path d="M34.1824 68.3633H39.8794V74.0602H34.1824V68.3633Z" fill="black"/>
<path d="M39.8794 68.3633H45.5763V74.0602H39.8794V68.3633Z" fill="black"/>
<path d="M45.5763 68.3633H51.2733V74.0602H45.5763V68.3633Z" fill="black"/>
<path d="M51.2733 68.3633H56.9703V74.0602H51.2733V68.3633Z" fill="black"/>
<path d="M56.9703 68.3633H62.6673V74.0602H56.9703V68.3633Z" fill="black"/>
<path d="M62.6673 68.3633H68.3642V74.0602H62.6673V68.3633Z" fill="black"/>
<path d="M74.0612 68.3633H79.7582V74.0602H74.0612V68.3633Z" fill="black"/>
<path d="M79.7582 68.3633H85.4551V74.0602H79.7582V68.3633Z" fill="black"/>
<path d="M91.1521 68.3633H96.8491V74.0602H91.1521V68.3633Z" fill="black"/>
<path d="M108.243 68.3633H113.94V74.0602H108.243V68.3633Z" fill="black"/>
<path d="M125.334 68.3633H131.031V74.0602H125.334V68.3633Z" fill="black"/>
<path d="M131.031 68.3633H136.728V74.0602H131.031V68.3633Z" fill="black"/>
<path d="M148.122 68.3633H153.819V74.0602H148.122V68.3633Z" fill="black"/>
<path d="M165.213 68.3633H170.91V74.0602H165.213V68.3633Z" fill="black"/>
<path d="M11.3945 74.0602H17.0915V79.7572H11.3945V74.0602Z" fill="black"/>
<path d="M17.0915 74.0602H22.7885V79.7572H17.0915V74.0602Z" fill="black"/>
<path d="M28.4854 74.0602H34.1824V79.7572H28.4854V74.0602Z" fill="black"/>
<path d="M39.8794 74.0602H45.5763V79.7572H39.8794V74.0602Z" fill="black"/>
<path d="M68.3642 74.0602H74.0612V79.7572H68.3642V74.0602Z" fill="black"/>
<path d="M79.7582 74.0602H85.4551V79.7572H79.7582V74.0602Z" fill="black"/>
<path d="M85.4551 74.0602H91.1521V79.7572H85.4551V74.0602Z" fill="black"/>
<path d="M108.243 74.0602H113.94V79.7572H108.243V74.0602Z" fill="black"/>
<path d="M113.94 74.0602H119.637V79.7572H113.94V74.0602Z" fill="black"/>
<path d="M136.728 74.0602H142.425V79.7572H136.728V74.0602Z" fill="black"/>
<path d="M142.425 74.0602H148.122V79.7572H142.425V74.0602Z" fill="black"/>
<path d="M148.122 74.0602H153.819V79.7572H148.122V74.0602Z" fill="black"/>
<path d="M159.516 74.0602H165.213V79.7572H159.516V74.0602Z" fill="black"/>
<path d="M22.7885 79.7572H28.4854V85.4542H22.7885V79.7572Z" fill="black"/>
<path d="M45.5763 79.7572H51.2733V85.4542H45.5763V79.7572Z" fill="black"/>
<path d="M51.2733 79.7572H56.9703V85.4542H51.2733V79.7572Z" fill="black"/>
<path d="M62.6673 79.7572H68.3642V85.4542H62.6673V79.7572Z" fill="black"/>
<path d="M68.3642 79.7572H74.0612V85.4542H68.3642V79.7572Z" fill="black"/>
<path d="M85.4551 79.7572H91.1521V85.4542H85.4551V79.7572Z" fill="black"/>
<path d="M96.8491 79.7572H102.546V85.4542H96.8491V79.7572Z" fill="black"/>
<path d="M119.637 79.7572H125.334V85.4542H119.637V79.7572Z" fill="black"/>
<path d="M125.334 79.7572H131.031V85.4542H125.334V79.7572Z" fill="black"/>
<path d="M131.031 79.7572H136.728V85.4542H131.031V79.7572Z" fill="black"/>
<path d="M136.728 79.7572H142.425V85.4542H136.728V79.7572Z" fill="black"/>
<path d="M153.819 79.7572H159.516V85.4542H153.819V79.7572Z" fill="black"/>
<path d="M34.1824 85.4542H39.8794V91.1511H34.1824V85.4542Z" fill="black"/>
<path d="M51.2733 85.4542H56.9703V91.1511H51.2733V85.4542Z" fill="black"/>
<path d="M68.3642 85.4542H74.0612V91.1511H68.3642V85.4542Z" fill="black"/>
<path d="M74.0612 85.4542H79.7582V91.1511H74.0612V85.4542Z" fill="black"/>
<path d="M91.1521 85.4542H96.8491V91.1511H91.1521V85.4542Z" fill="black"/>
<path d="M96.8491 85.4542H102.546V91.1511H96.8491V85.4542Z" fill="black"/>
<path d="M119.637 85.4542H125.334V91.1511H119.637V85.4542Z" fill="black"/>
<path d="M153.819 85.4542H159.516V91.1511H153.819V85.4542Z" fill="black"/>
<path d="M159.516 85.4542H165.213V91.1511H159.516V85.4542Z" fill="black"/>
<path d="M165.213 85.4542H170.91V91.1511H165.213V85.4542Z" fill="black"/>
<path d="M11.3945 91.1511H17.0915V96.8481H11.3945V91.1511Z" fill="black"/>
<path d="M22.7885 91.1511H28.4854V96.8481H22.7885V91.1511Z" fill="black"/>
<path d="M28.4854 91.1511H34.1824V96.8481H28.4854V91.1511Z" fill="black"/>
<path d="M39.8794 91.1511H45.5763V96.8481H39.8794V91.1511Z" fill="black"/>
<path d="M45.5763 91.1511H51.2733V96.8481H45.5763V91.1511Z" fill="black"/>
<path d="M51.2733 91.1511H56.9703V96.8481H51.2733V91.1511Z" fill="black"/>
<path d="M56.9703 91.1511H62.6673V96.8481H56.9703V91.1511Z" fill="black"/>
<path d="M62.6673 91.1511H68.3642V96.8481H62.6673V91.1511Z" fill="black"/>
<path d="M68.3642 91.1511H74.0612V96.8481H68.3642V91.1511Z" fill="black"/>
<path d="M74.0612 91.1511H79.7582V96.8481H74.0612V91.1511Z" fill="black"/>
<path d="M79.7582 91.1511H85.4551V96.8481H79.7582V91.1511Z" fill="black"/>
<path d="M102.546 91.1511H108.243V96.8481H102.546V91.1511Z" fill="black"/>
<path d="M108.243 91.1511H113.94V96.8481H108.243V91.1511Z" fill="black"/>
<path d="M113.94 91.1511H119.637V96.8481H113.94V91.1511Z" fill="black"/>
<path d="M125.334 91.1511H131.031V96.8481H125.334V91.1511Z" fill="black"/>
<path d="M136.728 91.1511H142.425V96.8481H136.728V91.1511Z" fill="black"/>
<path d="M148.122 91.1511H153.819V96.8481H148.122V91.1511Z" fill="black"/>
<path d="M159.516 91.1511H165.213V96.8481H159.516V91.1511Z" fill="black"/>
<path d="M170.91 91.1511H176.607V96.8481H170.91V91.1511Z" fill="black"/>
<path d="M28.4854 96.8481H34.1824V102.545H28.4854V96.8481Z" fill="black"/>
<path d="M39.8794 96.8481H45.5763V102.545H39.8794V96.8481Z" fill="black"/>
<path d="M51.2733 96.8481H56.9703V102.545H51.2733V96.8481Z" fill="black"/>
<path d="M56.9703 96.8481H62.6673V102.545H56.9703V96.8481Z" fill="black"/>
<path d="M62.6673 96.8481H68.3642V102.545H62.6673V96.8481Z" fill="black"/>
<path d="M79.7582 96.8481H85.4551V102.545H79.7582V96.8481Z" fill="black"/>
<path d="M113.94 96.8481H119.637V102.545H113.94V96.8481Z" fill="black"/>
<path d="M119.637 96.8481H125.334V102.545H119.637V96.8481Z" fill="black"/>
<path d="M125.334 96.8481H131.031V102.545H125.334V96.8481Z" fill="black"/>
<path d="M136.728 96.8481H142.425V102.545H136.728V96.8481Z" fill="black"/>
<path d="M142.425 96.8481H148.122V102.545H142.425V96.8481Z" fill="black"/>
<path d="M11.3945 102.545H17.0915V108.242H11.3945V102.545Z" fill="black"/>
<path d="M22.7885 102.545H28.4854V108.242H22.7885V102.545Z" fill="black"/>
<path d="M34.1824 102.545H39.8794V108.242H34.1824V102.545Z" fill="black"/>
<path d="M45.5763 102.545H51.2733V108.242H45.5763V102.545Z" fill="black"/>
<path d="M51.2733 102.545H56.9703V108.242H51.2733V102.545Z" fill="black"/>
<path d="M62.6673 102.545H68.3642V108.242H62.6673V102.545Z" fill="black"/>
<path d="M74.0612 102.545H79.7582V108.242H74.0612V102.545Z" fill="black"/>
<path d="M79.7582 102.545H85.4551V108.242H79.7582V102.545Z" fill="black"/>
<path d="M91.1521 102.545H96.8491V108.242H91.1521V102.545Z" fill="black"/>
<path d="M96.8491 102.545H102.546V108.242H96.8491V102.545Z" fill="black"/>
<path d="M108.243 102.545H113.94V108.242H108.243V102.545Z" fill="black"/>
<path d="M125.334 102.545H131.031V108.242H125.334V102.545Z" fill="black"/>
<path d="M165.213 102.545H170.91V108.242H165.213V102.545Z" fill="black"/>
<path d="M170.91 102.545H176.607V108.242H170.91V102.545Z" fill="black"/>
<path d="M56.9703 108.242H62.6673V113.939H56.9703V108.242Z" fill="black"/>
<path d="M62.6673 108.242H68.3642V113.939H62.6673V108.242Z" fill="black"/>
<path d="M79.7582 108.242H85.4551V113.939H79.7582V108.242Z" fill="black"/>
<path d="M85.4551 108.242H91.1521V113.939H85.4551V108.242Z" fill="black"/>
<path d="M113.94 108.242H119.637V113.939H113.94V108.242Z" fill="black"/>
<path d="M119.637 108.242H125.334V113.939H119.637V108.242Z" fill="black"/>
<path d="M125.334 108.242H131.031V113.939H125.334V108.242Z" fill="black"/>
<path d="M136.728 108.242H142.425V113.939H136.728V108.242Z" fill="black"/>
<path d="M142.425 108.242H148.122V113.939H142.425V108.242Z" fill="black"/>
<path d="M159.516 108.242H165.213V113.939H159.516V108.242Z" fill="black"/>
<path d="M165.213 108.242H170.91V113.939H165.213V108.242Z" fill="black"/>
<path d="M170.91 108.242H176.607V113.939H170.91V108.242Z" fill="black"/>
<path d="M11.3945 113.939H17.0915V119.636H11.3945V113.939Z" fill="black"/>
<path d="M22.7885 113.939H28.4854V119.636H22.7885V113.939Z" fill="black"/>
<path d="M45.5763 113.939H51.2733V119.636H45.5763V113.939Z" fill="black"/>
<path d="M56.9703 113.939H62.6673V119.636H56.9703V113.939Z" fill="black"/>
<path d="M68.3642 113.939H74.0612V119.636H68.3642V113.939Z" fill="black"/>
<path d="M85.4551 113.939H91.1521V119.636H85.4551V113.939Z" fill="black"/>
<path d="M91.1521 113.939H96.8491V119.636H91.1521V113.939Z" fill="black"/>
<path d="M108.243 113.939H113.94V119.636H108.243V113.939Z" fill="black"/>
<path d="M125.334 113.939H131.031V119.636H125.334V113.939Z" fill="black"/>
<path d="M136.728 113.939H142.425V119.636H136.728V113.939Z" fill="black"/>
<path d="M142.425 113.939H148.122V119.636H142.425V113.939Z" fill="black"/>
<path d="M165.213 113.939H170.91V119.636H165.213V113.939Z" fill="black"/>
<path d="M170.91 113.939H176.607V119.636H170.91V113.939Z" fill="black"/>
<path d="M34.1824 119.636H39.8794V125.333H34.1824V119.636Z" fill="black"/>
<path d="M68.3642 119.636H74.0612V125.333H68.3642V119.636Z" fill="black"/>
<path d="M79.7582 119.636H85.4551V125.333H79.7582V119.636Z" fill="black"/>
<path d="M85.4551 119.636H91.1521V125.333H85.4551V119.636Z" fill="black"/>
<path d="M91.1521 119.636H96.8491V125.333H91.1521V119.636Z" fill="black"/>
<path d="M96.8491 119.636H102.546V125.333H96.8491V119.636Z" fill="black"/>
<path d="M108.243 119.636H113.94V125.333H108.243V119.636Z" fill="black"/>
<path d="M113.94 119.636H119.637V125.333H113.94V119.636Z" fill="black"/>
<path d="M125.334 119.636H131.031V125.333H125.334V119.636Z" fill="black"/>
<path d="M131.031 119.636H136.728V125.333H131.031V119.636Z" fill="black"/>
<path d="M142.425 119.636H148.122V125.333H142.425V119.636Z" fill="black"/>
<path d="M153.819 119.636H159.516V125.333H153.819V119.636Z" fill="black"/>
<path d="M170.91 119.636H176.607V125.333H170.91V119.636Z" fill="black"/>
<path d="M11.3945 125.333H17.0915V131.03H11.3945V125.333Z" fill="black"/>
<path d="M22.7885 125.333H28.4854V131.03H22.7885V125.333Z" fill="black"/>
<path d="M34.1824 125.333H39.8794V131.03H34.1824V125.333Z" fill="black"/>
<path d="M39.8794 125.333H45.5763V131.03H39.8794V125.333Z" fill="black"/>
<path d="M45.5763 125.333H51.2733V131.03H45.5763V125.333Z" fill="black"/>
<path d="M51.2733 125.333H56.9703V131.03H51.2733V125.333Z" fill="black"/>
<path d="M62.6673 125.333H68.3642V131.03H62.6673V125.333Z" fill="black"/>
<path d="M79.7582 125.333H85.4551V131.03H79.7582V125.333Z" fill="black"/>
<path d="M102.546 125.333H108.243V131.03H102.546V125.333Z" fill="black"/>
<path d="M108.243 125.333H113.94V131.03H108.243V125.333Z" fill="black"/>
<path d="M125.334 125.333H131.031V131.03H125.334V125.333Z" fill="black"/>
<path d="M131.031 125.333H136.728V131.03H131.031V125.333Z" fill="black"/>
<path d="M136.728 125.333H142.425V131.03H136.728V125.333Z" fill="black"/>
<path d="M142.425 125.333H148.122V131.03H142.425V125.333Z" fill="black"/>
<path d="M148.122 125.333H153.819V131.03H148.122V125.333Z" fill="black"/>
<path d="M153.819 125.333H159.516V131.03H153.819V125.333Z" fill="black"/>
<path d="M159.516 125.333H165.213V131.03H159.516V125.333Z" fill="black"/>
<path d="M165.213 125.333H170.91V131.03H165.213V125.333Z" fill="black"/>
<path d="M170.91 125.333H176.607V131.03H170.91V125.333Z" fill="black"/>
<path d="M56.9703 131.03H62.6673V136.727H56.9703V131.03Z" fill="black"/>
<path d="M74.0612 131.03H79.7582V136.727H74.0612V131.03Z" fill="black"/>
<path d="M79.7582 131.03H85.4551V136.727H79.7582V131.03Z" fill="black"/>
<path d="M85.4551 131.03H91.1521V136.727H85.4551V131.03Z" fill="black"/>
<path d="M91.1521 131.03H96.8491V136.727H91.1521V131.03Z" fill="black"/>
<path d="M96.8491 131.03H102.546V136.727H96.8491V131.03Z" fill="black"/>
<path d="M113.94 131.03H119.637V136.727H113.94V131.03Z" fill="black"/>
<path d="M119.637 131.03H125.334V136.727H119.637V131.03Z" fill="black"/>
<path d="M125.334 131.03H131.031V136.727H125.334V131.03Z" fill="black"/>
<path d="M148.122 131.03H153.819V136.727H148.122V131.03Z" fill="black"/>
<path d="M153.819 131.03H159.516V136.727H153.819V131.03Z" fill="black"/>
<path d="M165.213 131.03H170.91V136.727H165.213V131.03Z" fill="black"/>
<path d="M170.91 131.03H176.607V136.727H170.91V131.03Z" fill="black"/>
<path d="M11.3945 136.727H17.0915V142.424H11.3945V136.727Z" fill="black"/>
<path d="M17.0915 136.727H22.7885V142.424H17.0915V136.727Z" fill="black"/>
<path d="M22.7885 136.727H28.4854V142.424H22.7885V136.727Z" fill="black"/>
<path d="M28.4854 136.727H34.1824V142.424H28.4854V136.727Z" fill="black"/>
<path d="M34.1824 136.727H39.8794V142.424H34.1824V136.727Z" fill="black"/>
<path d="M39.8794 136.727H45.5763V142.424H39.8794V136.727Z" fill="black"/>
<path d="M45.5763 136.727H51.2733V142.424H45.5763V136.727Z" fill="black"/>
<path d="M62.6673 136.727H68.3642V142.424H62.6673V136.727Z" fill="black"/>
<path d="M68.3642 136.727H74.0612V142.424H68.3642V136.727Z" fill="black"/>
<path d="M79.7582 136.727H85.4551V142.424H79.7582V136.727Z" fill="black"/>
<path d="M85.4551 136.727H91.1521V142.424H85.4551V136.727Z" fill="black"/>
<path d="M113.94 136.727H119.637V142.424H113.94V136.727Z" fill="black"/>
<path d="M125.334 136.727H131.031V142.424H125.334V136.727Z" fill="black"/>
<path d="M136.728 136.727H142.425V142.424H136.728V136.727Z" fill="black"/>
<path d="M148.122 136.727H153.819V142.424H148.122V136.727Z" fill="black"/>
<path d="M165.213 136.727H170.91V142.424H165.213V136.727Z" fill="black"/>
<path d="M11.3945 142.424H17.0915V148.121H11.3945V142.424Z" fill="black"/>
<path d="M45.5763 142.424H51.2733V148.121H45.5763V142.424Z" fill="black"/>
<path d="M62.6673 142.424H68.3642V148.121H62.6673V142.424Z" fill="black"/>
<path d="M68.3642 142.424H74.0612V148.121H68.3642V142.424Z" fill="black"/>
<path d="M85.4551 142.424H91.1521V148.121H85.4551V142.424Z" fill="black"/>
<path d="M91.1521 142.424H96.8491V148.121H91.1521V142.424Z" fill="black"/>
<path d="M102.546 142.424H108.243V148.121H102.546V142.424Z" fill="black"/>
<path d="M108.243 142.424H113.94V148.121H108.243V142.424Z" fill="black"/>
<path d="M125.334 142.424H131.031V148.121H125.334V142.424Z" fill="black"/>
<path d="M148.122 142.424H153.819V148.121H148.122V142.424Z" fill="black"/>
<path d="M159.516 142.424H165.213V148.121H159.516V142.424Z" fill="black"/>
<path d="M170.91 142.424H176.607V148.121H170.91V142.424Z" fill="black"/>
<path d="M11.3945 148.121H17.0915V153.818H11.3945V148.121Z" fill="black"/>
<path d="M22.7885 148.121H28.4854V153.818H22.7885V148.121Z" fill="black"/>
<path d="M28.4854 148.121H34.1824V153.818H28.4854V148.121Z" fill="black"/>
<path d="M34.1824 148.121H39.8794V153.818H34.1824V148.121Z" fill="black"/>
<path d="M45.5763 148.121H51.2733V153.818H45.5763V148.121Z" fill="black"/>
<path d="M68.3642 148.121H74.0612V153.818H68.3642V148.121Z" fill="black"/>
<path d="M79.7582 148.121H85.4551V153.818H79.7582V148.121Z" fill="black"/>
<path d="M85.4551 148.121H91.1521V153.818H85.4551V148.121Z" fill="black"/>
<path d="M91.1521 148.121H96.8491V153.818H91.1521V148.121Z" fill="black"/>
<path d="M108.243 148.121H113.94V153.818H108.243V148.121Z" fill="black"/>
<path d="M125.334 148.121H131.031V153.818H125.334V148.121Z" fill="black"/>
<path d="M131.031 148.121H136.728V153.818H131.031V148.121Z" fill="black"/>
<path d="M136.728 148.121H142.425V153.818H136.728V148.121Z" fill="black"/>
<path d="M142.425 148.121H148.122V153.818H142.425V148.121Z" fill="black"/>
<path d="M148.122 148.121H153.819V153.818H148.122V148.121Z" fill="black"/>
<path d="M153.819 148.121H159.516V153.818H153.819V148.121Z" fill="black"/>
<path d="M165.213 148.121H170.91V153.818H165.213V148.121Z" fill="black"/>
<path d="M11.3945 153.818H17.0915V159.515H11.3945V153.818Z" fill="black"/>
<path d="M22.7885 153.818H28.4854V159.515H22.7885V153.818Z" fill="black"/>
<path d="M28.4854 153.818H34.1824V159.515H28.4854V153.818Z" fill="black"/>
<path d="M34.1824 153.818H39.8794V159.515H34.1824V153.818Z" fill="black"/>
<path d="M45.5763 153.818H51.2733V159.515H45.5763V153.818Z" fill="black"/>
<path d="M56.9703 153.818H62.6673V159.515H56.9703V153.818Z" fill="black"/>
<path d="M68.3642 153.818H74.0612V159.515H68.3642V153.818Z" fill="black"/>
<path d="M108.243 153.818H113.94V159.515H108.243V153.818Z" fill="black"/>
<path d="M119.637 153.818H125.334V159.515H119.637V153.818Z" fill="black"/>
<path d="M136.728 153.818H142.425V159.515H136.728V153.818Z" fill="black"/>
<path d="M142.425 153.818H148.122V159.515H142.425V153.818Z" fill="black"/>
<path d="M148.122 153.818H153.819V159.515H148.122V153.818Z" fill="black"/>
<path d="M153.819 153.818H159.516V159.515H153.819V153.818Z" fill="black"/>
<path d="M170.91 153.818H176.607V159.515H170.91V153.818Z" fill="black"/>
<path d="M11.3945 159.515H17.0915V165.212H11.3945V159.515Z" fill="black"/>
<path d="M22.7885 159.515H28.4854V165.212H22.7885V159.515Z" fill="black"/>
<path d="M28.4854 159.515H34.1824V165.212H28.4854V159.515Z" fill="black"/>
<path d="M34.1824 159.515H39.8794V165.212H34.1824V159.515Z" fill="black"/>
<path d="M45.5763 159.515H51.2733V165.212H45.5763V159.515Z" fill="black"/>
<path d="M68.3642 159.515H74.0612V165.212H68.3642V159.515Z" fill="black"/>
<path d="M74.0612 159.515H79.7582V165.212H74.0612V159.515Z" fill="black"/>
<path d="M96.8491 159.515H102.546V165.212H96.8491V159.515Z" fill="black"/>
<path d="M102.546 159.515H108.243V165.212H102.546V159.515Z" fill="black"/>
<path d="M113.94 159.515H119.637V165.212H113.94V159.515Z" fill="black"/>
<path d="M148.122 159.515H153.819V165.212H148.122V159.515Z" fill="black"/>
<path d="M159.516 159.515H165.213V165.212H159.516V159.515Z" fill="black"/>
<path d="M170.91 159.515H176.607V165.212H170.91V159.515Z" fill="black"/>
<path d="M11.3945 165.212H17.0915V170.909H11.3945V165.212Z" fill="black"/>
<path d="M45.5763 165.212H51.2733V170.909H45.5763V165.212Z" fill="black"/>
<path d="M74.0612 165.212H79.7582V170.909H74.0612V165.212Z" fill="black"/>
<path d="M85.4551 165.212H91.1521V170.909H85.4551V165.212Z" fill="black"/>
<path d="M91.1521 165.212H96.8491V170.909H91.1521V165.212Z" fill="black"/>
<path d="M102.546 165.212H108.243V170.909H102.546V165.212Z" fill="black"/>
<path d="M108.243 165.212H113.94V170.909H108.243V165.212Z" fill="black"/>
<path d="M113.94 165.212H119.637V170.909H113.94V165.212Z" fill="black"/>
<path d="M125.334 165.212H131.031V170.909H125.334V165.212Z" fill="black"/>
<path d="M131.031 165.212H136.728V170.909H131.031V165.212Z" fill="black"/>
<path d="M142.425 165.212H148.122V170.909H142.425V165.212Z" fill="black"/>
<path d="M165.213 165.212H170.91V170.909H165.213V165.212Z" fill="black"/>
<path d="M11.3945 170.909H17.0915V176.606H11.3945V170.909Z" fill="black"/>
<path d="M17.0915 170.909H22.7885V176.606H17.0915V170.909Z" fill="black"/>
<path d="M22.7885 170.909H28.4854V176.606H22.7885V170.909Z" fill="black"/>
<path d="M28.4854 170.909H34.1824V176.606H28.4854V170.909Z" fill="black"/>
<path d="M34.1824 170.909H39.8794V176.606H34.1824V170.909Z" fill="black"/>
<path d="M39.8794 170.909H45.5763V176.606H39.8794V170.909Z" fill="black"/>
<path d="M45.5763 170.909H51.2733V176.606H45.5763V170.909Z" fill="black"/>
<path d="M62.6673 170.909H68.3642V176.606H62.6673V170.909Z" fill="black"/>
<path d="M79.7582 170.909H85.4551V176.606H79.7582V170.909Z" fill="black"/>
<path d="M85.4551 170.909H91.1521V176.606H85.4551V170.909Z" fill="black"/>
<path d="M102.546 170.909H108.243V176.606H102.546V170.909Z" fill="black"/>
<path d="M113.94 170.909H119.637V176.606H113.94V170.909Z" fill="black"/>
<path d="M125.334 170.909H131.031V176.606H125.334V170.909Z" fill="black"/>
<path d="M131.031 170.909H136.728V176.606H131.031V170.909Z" fill="black"/>
<path d="M136.728 170.909H142.425V176.606H136.728V170.909Z" fill="black"/>
<path d="M142.425 170.909H148.122V176.606H142.425V170.909Z" fill="black"/>
<path d="M148.122 170.909H153.819V176.606H148.122V170.909Z" fill="black"/>
<path d="M165.213 170.909H170.91V176.606H165.213V170.909Z" fill="black"/>
<path d="M17.0915 11.3936H11.3945V17.0905M17.0915 11.3936V17.0905M17.0915 11.3936H22.7885M17.0915 17.0905H11.3945M17.0915 17.0905H22.7885M17.0915 17.0905V22.7875M11.3945 17.0905V22.7875M22.7885 11.3936V17.0905M22.7885 11.3936H28.4854M22.7885 17.0905H28.4854M28.4854 11.3936V17.0905M28.4854 11.3936H34.1824M28.4854 17.0905H34.1824M34.1824 11.3936V17.0905M34.1824 11.3936H39.8794M34.1824 17.0905H39.8794M39.8794 11.3936V17.0905M39.8794 11.3936H45.5763M39.8794 17.0905H45.5763M45.5763 11.3936V17.0905M45.5763 11.3936H51.2733V17.0905M45.5763 17.0905H51.2733M45.5763 17.0905V22.7875M51.2733 17.0905V22.7875M62.6673 11.3936H56.9703V17.0905M62.6673 11.3936V17.0905M62.6673 11.3936H68.3642V17.0905M62.6673 17.0905H56.9703M62.6673 17.0905H68.3642M62.6673 17.0905V22.7875H56.9703V17.0905M68.3642 17.0905H74.0612M68.3642 17.0905V22.7875M102.546 17.0905V11.3936H96.8491V17.0905H102.546ZM102.546 17.0905H108.243V22.7875M102.546 17.0905V22.7875H108.243M131.031 17.0905V11.3936H125.334V17.0905M131.031 17.0905H125.334M131.031 17.0905V22.7875H125.334V17.0905M142.425 11.3936H136.728V17.0905M142.425 11.3936V17.0905M142.425 11.3936H148.122M142.425 17.0905H136.728M142.425 17.0905H148.122M142.425 17.0905V22.7875M136.728 17.0905V22.7875M148.122 11.3936V17.0905M148.122 11.3936H153.819M148.122 17.0905H153.819M153.819 11.3936V17.0905M153.819 11.3936H159.516M153.819 17.0905H159.516M159.516 11.3936V17.0905M159.516 11.3936H165.213M159.516 17.0905H165.213M165.213 11.3936V17.0905M165.213 11.3936H170.91M165.213 17.0905H170.91M170.91 11.3936V17.0905M170.91 11.3936H176.607V17.0905M170.91 17.0905H176.607M170.91 17.0905V22.7875M176.607 17.0905V22.7875M17.0915 22.7875H11.3945M17.0915 22.7875V28.4845M11.3945 22.7875V28.4845M51.2733 22.7875H45.5763M51.2733 22.7875V28.4845M45.5763 22.7875V28.4845M74.0612 17.0905V22.7875M74.0612 17.0905H79.7582V22.7875H74.0612M74.0612 22.7875H68.3642M74.0612 22.7875V28.4845M68.3642 22.7875V28.4845M91.1521 22.7875V17.0905H85.4551V22.7875M91.1521 22.7875H85.4551M91.1521 22.7875V28.4845M85.4551 22.7875V28.4845H91.1521M108.243 22.7875H113.94V28.4845M108.243 22.7875V28.4845M142.425 22.7875H136.728M142.425 22.7875V28.4845M136.728 22.7875V28.4845M176.607 22.7875H170.91M176.607 22.7875V28.4845M170.91 22.7875V28.4845M17.0915 28.4845H11.3945M17.0915 28.4845V34.1814M11.3945 28.4845V34.1814M28.4854 22.7875H22.7885V28.4845M28.4854 22.7875V28.4845M28.4854 22.7875H34.1824M28.4854 28.4845H22.7885M28.4854 28.4845H34.1824M28.4854 28.4845V34.1814M22.7885 28.4845V34.1814M34.1824 22.7875V28.4845M34.1824 22.7875H39.8794V28.4845M34.1824 28.4845H39.8794M34.1824 28.4845V34.1814M39.8794 28.4845V34.1814M51.2733 28.4845H45.5763M51.2733 28.4845V34.1814M45.5763 28.4845V34.1814M74.0612 28.4845H68.3642M74.0612 28.4845V34.1814M74.0612 28.4845H79.7582V34.1814M68.3642 28.4845V34.1814M91.1521 28.4845H96.8491M91.1521 28.4845V34.1814M113.94 28.4845H108.243M113.94 28.4845H119.637M113.94 28.4845V34.1814M108.243 28.4845H102.546M108.243 28.4845V34.1814M142.425 28.4845H136.728M142.425 28.4845V34.1814M136.728 28.4845V34.1814M153.819 22.7875H148.122V28.4845M153.819 22.7875V28.4845M153.819 22.7875H159.516M153.819 28.4845H148.122M153.819 28.4845H159.516M153.819 28.4845V34.1814M148.122 28.4845V34.1814M159.516 22.7875V28.4845M159.516 22.7875H165.213V28.4845M159.516 28.4845H165.213M159.516 28.4845V34.1814M165.213 28.4845V34.1814M176.607 28.4845H170.91M176.607 28.4845V34.1814M170.91 28.4845V34.1814M17.0915 34.1814H11.3945M17.0915 34.1814V39.8784M11.3945 34.1814V39.8784M28.4854 34.1814H22.7885M28.4854 34.1814H34.1824M28.4854 34.1814V39.8784M22.7885 34.1814V39.8784H28.4854M34.1824 34.1814H39.8794M34.1824 34.1814V39.8784M39.8794 34.1814V39.8784H34.1824M51.2733 34.1814H45.5763M51.2733 34.1814V39.8784M45.5763 34.1814V39.8784M62.6673 34.1814V28.4845H56.9703V34.1814M62.6673 34.1814H56.9703M62.6673 34.1814V39.8784M56.9703 34.1814V39.8784M74.0612 34.1814H68.3642M74.0612 34.1814H79.7582M74.0612 34.1814V39.8784M68.3642 34.1814V39.8784H74.0612M79.7582 34.1814V39.8784M96.8491 28.4845V34.1814M96.8491 28.4845H102.546M96.8491 34.1814H91.1521M96.8491 34.1814H102.546M96.8491 34.1814V39.8784H91.1521V34.1814M102.546 28.4845V34.1814M102.546 34.1814H108.243M108.243 34.1814H113.94M108.243 34.1814V39.8784M119.637 28.4845V34.1814M119.637 28.4845H125.334V34.1814H119.637M119.637 34.1814H113.94M119.637 34.1814V39.8784M113.94 34.1814V39.8784M142.425 34.1814H136.728M142.425 34.1814V39.8784M136.728 34.1814V39.8784M153.819 34.1814H148.122M153.819 34.1814H159.516M153.819 34.1814V39.8784M148.122 34.1814V39.8784H153.819M159.516 34.1814H165.213M159.516 34.1814V39.8784M165.213 34.1814V39.8784H159.516M176.607 34.1814H170.91M176.607 34.1814V39.8784M170.91 34.1814V39.8784M17.0915 39.8784H11.3945M17.0915 39.8784V45.5754M11.3945 39.8784V45.5754M28.4854 39.8784H34.1824M51.2733 39.8784H45.5763M51.2733 39.8784V45.5754M45.5763 39.8784V45.5754M62.6673 39.8784H56.9703M62.6673 39.8784V45.5754M56.9703 39.8784V45.5754M74.0612 39.8784H79.7582M79.7582 39.8784H85.4551V45.5754M79.7582 39.8784V45.5754M113.94 39.8784H108.243M113.94 39.8784H119.637M113.94 39.8784V45.5754M108.243 39.8784V45.5754M119.637 39.8784V45.5754M119.637 39.8784H125.334M142.425 39.8784H136.728M142.425 39.8784V45.5754M136.728 39.8784V45.5754M153.819 39.8784H159.516M176.607 39.8784H170.91M176.607 39.8784V45.5754M170.91 39.8784V45.5754M17.0915 45.5754H11.3945M17.0915 45.5754V51.2723M17.0915 45.5754H22.7885M11.3945 45.5754V51.2723H17.0915M51.2733 45.5754H45.5763M51.2733 45.5754V51.2723H45.5763M45.5763 45.5754H39.8794M45.5763 45.5754V51.2723M62.6673 45.5754H56.9703M62.6673 45.5754V51.2723H56.9703V45.5754M85.4551 45.5754H79.7582M85.4551 45.5754V51.2723M79.7582 45.5754V51.2723H85.4551M113.94 45.5754H108.243M113.94 45.5754H119.637M113.94 45.5754V51.2723H119.637M108.243 45.5754H102.546V51.2723M108.243 45.5754V51.2723H102.546M119.637 45.5754H125.334M119.637 45.5754V51.2723M125.334 39.8784V45.5754M125.334 39.8784H131.031V45.5754M125.334 45.5754H131.031M125.334 45.5754V51.2723M131.031 45.5754V51.2723M142.425 45.5754H136.728M142.425 45.5754V51.2723M142.425 45.5754H148.122M136.728 45.5754V51.2723H142.425M176.607 45.5754H170.91M176.607 45.5754V51.2723H170.91M170.91 45.5754H165.213M170.91 45.5754V51.2723M17.0915 51.2723H22.7885M22.7885 45.5754V51.2723M22.7885 45.5754H28.4854M22.7885 51.2723H28.4854M28.4854 45.5754V51.2723M28.4854 45.5754H34.1824M28.4854 51.2723H34.1824M34.1824 45.5754V51.2723M34.1824 45.5754H39.8794M34.1824 51.2723H39.8794M39.8794 45.5754V51.2723M39.8794 51.2723H45.5763M74.0612 51.2723V45.5754H68.3642V51.2723M74.0612 51.2723H68.3642M74.0612 51.2723V56.9693M68.3642 51.2723V56.9693H74.0612M85.4551 51.2723H91.1521M85.4551 51.2723V56.9693M96.8491 51.2723V45.5754H91.1521V51.2723M96.8491 51.2723H91.1521M96.8491 51.2723V56.9693M96.8491 51.2723H102.546M91.1521 51.2723V56.9693M102.546 51.2723V56.9693M119.637 51.2723H125.334M119.637 51.2723V56.9693M131.031 51.2723H125.334M131.031 51.2723V56.9693H125.334M125.334 51.2723V56.9693M142.425 51.2723H148.122M148.122 45.5754V51.2723M148.122 45.5754H153.819M148.122 51.2723H153.819M153.819 45.5754V51.2723M153.819 45.5754H159.516M153.819 51.2723H159.516M159.516 45.5754V51.2723M159.516 45.5754H165.213M159.516 51.2723H165.213M165.213 45.5754V51.2723M165.213 51.2723H170.91M74.0612 56.9693H79.7582M74.0612 56.9693V62.6663M91.1521 56.9693H85.4551M91.1521 56.9693H96.8491M85.4551 56.9693H79.7582M85.4551 56.9693V62.6663M96.8491 56.9693H102.546M102.546 56.9693H108.243M102.546 56.9693V62.6663H108.243M125.334 56.9693H119.637M125.334 56.9693V62.6663M119.637 56.9693V62.6663M34.1824 62.6663V56.9693H28.4854V62.6663M34.1824 62.6663H28.4854M34.1824 62.6663V68.3633M28.4854 62.6663V68.3633M45.5763 62.6663H51.2733V56.9693H45.5763V62.6663ZM45.5763 62.6663H39.8794V68.3633M45.5763 62.6663V68.3633M79.7582 56.9693V62.6663M79.7582 62.6663H74.0612M79.7582 62.6663H85.4551M74.0612 62.6663H68.3642M74.0612 62.6663V68.3633M85.4551 62.6663H91.1521V68.3633M85.4551 62.6663V68.3633M108.243 56.9693V62.6663M108.243 56.9693H113.94V62.6663M108.243 62.6663H113.94M108.243 62.6663V68.3633M113.94 62.6663V68.3633M125.334 62.6663H119.637M125.334 62.6663V68.3633M125.334 62.6663H131.031V68.3633M119.637 62.6663V68.3633H125.334M148.122 56.9693H142.425V62.6663M148.122 56.9693V62.6663M148.122 56.9693H153.819M148.122 62.6663H142.425M148.122 62.6663H153.819M148.122 62.6663V68.3633M142.425 62.6663H136.728V68.3633M142.425 62.6663V68.3633M153.819 56.9693V62.6663M153.819 56.9693H159.516V62.6663M153.819 62.6663H159.516M159.516 62.6663H165.213M159.516 62.6663V68.3633H165.213M170.91 56.9693H165.213V62.6663M170.91 56.9693V62.6663M170.91 56.9693H176.607V62.6663M170.91 62.6663H165.213M170.91 62.6663H176.607M170.91 62.6663V68.3633M165.213 62.6663V68.3633M176.607 62.6663V68.3633H170.91M34.1824 68.3633H28.4854M34.1824 68.3633H39.8794M34.1824 68.3633V74.0602M28.4854 68.3633H22.7885M28.4854 68.3633V74.0602M45.5763 68.3633H39.8794M45.5763 68.3633V74.0602M45.5763 68.3633H51.2733M39.8794 68.3633V74.0602M62.6673 62.6663H56.9703V68.3633M62.6673 62.6663V68.3633M62.6673 62.6663H68.3642M62.6673 68.3633H56.9703M62.6673 68.3633H68.3642M62.6673 68.3633V74.0602M56.9703 68.3633H51.2733M56.9703 68.3633V74.0602M68.3642 62.6663V68.3633M68.3642 68.3633H74.0612M68.3642 68.3633V74.0602M74.0612 68.3633H79.7582M74.0612 68.3633V74.0602M91.1521 68.3633H85.4551M91.1521 68.3633H96.8491V74.0602H91.1521M91.1521 68.3633V74.0602M85.4551 68.3633H79.7582M85.4551 68.3633V74.0602M113.94 68.3633H108.243M113.94 68.3633V74.0602M108.243 68.3633V74.0602M125.334 68.3633H131.031M125.334 68.3633V74.0602H131.031M131.031 68.3633V74.0602M131.031 68.3633H136.728M142.425 68.3633H136.728M142.425 68.3633H148.122M136.728 68.3633V74.0602M148.122 68.3633H153.819V74.0602M148.122 68.3633V74.0602M165.213 68.3633H170.91M165.213 68.3633V74.0602M170.91 68.3633V74.0602H165.213M17.0915 68.3633H11.3945V74.0602M17.0915 68.3633V74.0602M17.0915 68.3633H22.7885M17.0915 74.0602H11.3945M17.0915 74.0602H22.7885M17.0915 74.0602V79.7572M11.3945 74.0602V79.7572H17.0915M22.7885 68.3633V74.0602M22.7885 74.0602H28.4854M22.7885 74.0602V79.7572M28.4854 74.0602H34.1824M28.4854 74.0602V79.7572M39.8794 74.0602H34.1824M39.8794 74.0602H45.5763M39.8794 74.0602V79.7572H45.5763M34.1824 74.0602V79.7572H28.4854M45.5763 74.0602H51.2733M45.5763 74.0602V79.7572M51.2733 68.3633V74.0602M51.2733 74.0602H56.9703M56.9703 74.0602H62.6673M62.6673 74.0602H68.3642M68.3642 74.0602H74.0612M68.3642 74.0602V79.7572M79.7582 68.3633V74.0602M79.7582 74.0602H74.0612M79.7582 74.0602H85.4551M79.7582 74.0602V79.7572H85.4551M74.0612 74.0602V79.7572M85.4551 74.0602V79.7572M85.4551 74.0602H91.1521M91.1521 74.0602V79.7572M113.94 74.0602H108.243M113.94 74.0602V79.7572M113.94 74.0602H119.637V79.7572M108.243 74.0602V79.7572H113.94M131.031 74.0602H136.728M136.728 74.0602H142.425M136.728 74.0602V79.7572M153.819 74.0602H148.122M153.819 74.0602V79.7572M148.122 74.0602H142.425M148.122 74.0602V79.7572M165.213 74.0602H159.516V79.7572M165.213 74.0602V79.7572H159.516M17.0915 79.7572H22.7885M22.7885 79.7572H28.4854M22.7885 79.7572V85.4542H28.4854V79.7572M45.5763 79.7572H51.2733M45.5763 79.7572V85.4542H51.2733M74.0612 79.7572H68.3642M74.0612 79.7572V85.4542M68.3642 79.7572H62.6673V85.4542H68.3642M68.3642 79.7572V85.4542M85.4551 79.7572H91.1521M85.4551 79.7572V85.4542H91.1521M91.1521 79.7572V85.4542M113.94 79.7572H119.637M119.637 79.7572H125.334M119.637 79.7572V85.4542M142.425 74.0602V79.7572M142.425 79.7572H136.728M142.425 79.7572H148.122M142.425 79.7572V85.4542H136.728M136.728 79.7572H131.031M136.728 79.7572V85.4542M148.122 79.7572H153.819M153.819 79.7572H159.516M153.819 79.7572V85.4542M159.516 79.7572V85.4542M51.2733 79.7572V85.4542M51.2733 79.7572H56.9703V85.4542M51.2733 85.4542H56.9703M51.2733 85.4542V91.1511M56.9703 85.4542V91.1511M68.3642 85.4542H74.0612M68.3642 85.4542V91.1511M74.0612 85.4542V91.1511M74.0612 85.4542H79.7582V91.1511M91.1521 85.4542H96.8491M91.1521 85.4542V91.1511H96.8491M102.546 85.4542V79.7572H96.8491V85.4542M102.546 85.4542H96.8491M102.546 85.4542V91.1511M96.8491 85.4542V91.1511M125.334 79.7572V85.4542M125.334 79.7572H131.031M125.334 85.4542H119.637M125.334 85.4542H131.031M125.334 85.4542V91.1511M119.637 85.4542V91.1511M131.031 79.7572V85.4542M131.031 85.4542H136.728M159.516 85.4542H153.819M159.516 85.4542V91.1511M159.516 85.4542H165.213M153.819 85.4542V91.1511M39.8794 91.1511V85.4542H34.1824V91.1511M39.8794 91.1511H34.1824M39.8794 91.1511H45.5763M39.8794 91.1511V96.8481M34.1824 91.1511H28.4854M34.1824 91.1511V96.8481M56.9703 91.1511H51.2733M56.9703 91.1511V96.8481M56.9703 91.1511H62.6673M51.2733 91.1511H45.5763M51.2733 91.1511V96.8481M74.0612 91.1511H68.3642M74.0612 91.1511H79.7582M74.0612 91.1511V96.8481M68.3642 91.1511H62.6673M68.3642 91.1511V96.8481M79.7582 91.1511V96.8481M79.7582 91.1511H85.4551V96.8481M96.8491 91.1511H102.546M102.546 91.1511H108.243M102.546 91.1511V96.8481H108.243M125.334 91.1511H119.637M125.334 91.1511H131.031V96.8481M125.334 91.1511V96.8481M119.637 91.1511H113.94M119.637 91.1511V96.8481M159.516 91.1511H153.819M159.516 91.1511H165.213M159.516 91.1511V96.8481H165.213V91.1511M153.819 91.1511H148.122V96.8481M153.819 91.1511V96.8481H148.122M165.213 85.4542V91.1511M165.213 85.4542H170.91V91.1511M165.213 91.1511H170.91M170.91 91.1511H176.607V96.8481H170.91V91.1511ZM28.4854 91.1511H22.7885V96.8481H28.4854M28.4854 91.1511V96.8481M28.4854 96.8481H34.1824M28.4854 96.8481V102.545M34.1824 96.8481V102.545M45.5763 91.1511V96.8481M45.5763 96.8481H39.8794M45.5763 96.8481H51.2733M45.5763 96.8481V102.545M39.8794 96.8481V102.545M51.2733 96.8481H56.9703M51.2733 96.8481V102.545M56.9703 96.8481H62.6673M56.9703 96.8481V102.545M62.6673 91.1511V96.8481M62.6673 96.8481H68.3642M62.6673 96.8481V102.545M68.3642 96.8481H74.0612M68.3642 96.8481V102.545M74.0612 96.8481H79.7582M79.7582 96.8481H85.4551M79.7582 96.8481V102.545M85.4551 96.8481V102.545M108.243 91.1511V96.8481M108.243 91.1511H113.94M108.243 96.8481H113.94M113.94 91.1511V96.8481M113.94 96.8481H119.637M113.94 96.8481V102.545M119.637 96.8481V102.545M119.637 96.8481H125.334M131.031 96.8481H125.334M131.031 96.8481V102.545M125.334 96.8481V102.545M142.425 96.8481V91.1511H136.728V96.8481M142.425 96.8481H136.728M142.425 96.8481V102.545M142.425 96.8481H148.122M136.728 96.8481V102.545H142.425M148.122 96.8481V102.545H142.425M34.1824 102.545H28.4854M34.1824 102.545H39.8794M34.1824 102.545V108.242H39.8794V102.545M28.4854 102.545H22.7885V108.242H28.4854V102.545ZM45.5763 102.545H39.8794M45.5763 102.545H51.2733M45.5763 102.545V108.242H51.2733M56.9703 102.545H51.2733M56.9703 102.545H62.6673M56.9703 102.545V108.242M51.2733 102.545V108.242M62.6673 102.545H68.3642M62.6673 102.545V108.242M68.3642 102.545V108.242M85.4551 102.545H79.7582M85.4551 102.545V108.242M79.7582 102.545H74.0612V108.242H79.7582M79.7582 102.545V108.242M119.637 102.545H113.94M119.637 102.545H125.334M113.94 102.545H108.243V108.242H113.94M113.94 102.545V108.242M125.334 102.545H131.031M125.334 102.545V108.242M131.031 102.545V108.242M51.2733 108.242H56.9703M56.9703 108.242H62.6673M56.9703 108.242V113.939M68.3642 108.242H62.6673M68.3642 108.242V113.939M62.6673 108.242V113.939M79.7582 108.242H85.4551M79.7582 108.242V113.939H85.4551M85.4551 108.242V113.939M85.4551 108.242H91.1521M96.8491 102.545H91.1521V108.242M96.8491 102.545V108.242M96.8491 102.545H102.546V108.242H96.8491M96.8491 108.242H91.1521M91.1521 108.242V113.939M113.94 108.242H119.637M113.94 108.242V113.939M131.031 108.242H125.334M131.031 108.242V113.939M125.334 108.242H119.637M125.334 108.242V113.939M170.91 102.545H165.213V108.242M170.91 102.545V108.242M170.91 102.545H176.607V108.242M170.91 108.242H165.213M170.91 108.242H176.607M170.91 108.242V113.939M165.213 108.242H159.516V113.939H165.213M165.213 108.242V113.939M176.607 108.242V113.939M62.6673 113.939H56.9703M62.6673 113.939H68.3642M62.6673 113.939V119.636H56.9703V113.939M68.3642 113.939H74.0612V119.636M68.3642 113.939V119.636M85.4551 113.939H91.1521M85.4551 113.939V119.636M91.1521 113.939V119.636M91.1521 113.939H96.8491V119.636M119.637 108.242V113.939M119.637 113.939H113.94M119.637 113.939H125.334M113.94 113.939H108.243V119.636M113.94 113.939V119.636M125.334 113.939H131.031M125.334 113.939V119.636M131.031 113.939V119.636M142.425 108.242H136.728V113.939M142.425 108.242V113.939M142.425 108.242H148.122V113.939M142.425 113.939H136.728M142.425 113.939H148.122M142.425 113.939V119.636M136.728 113.939V119.636M148.122 113.939V119.636M165.213 113.939H170.91M165.213 113.939V119.636H170.91M170.91 113.939H176.607M170.91 113.939V119.636M176.607 113.939V119.636M74.0612 119.636H68.3642M74.0612 119.636V125.333H68.3642M68.3642 119.636V125.333M91.1521 119.636H85.4551M91.1521 119.636H96.8491M91.1521 119.636V125.333M85.4551 119.636H79.7582V125.333M85.4551 119.636V125.333M96.8491 119.636V125.333M96.8491 119.636H102.546V125.333M113.94 119.636H108.243M113.94 119.636V125.333M113.94 119.636H119.637V125.333H113.94M108.243 119.636V125.333M131.031 119.636H125.334M131.031 119.636V125.333M131.031 119.636H136.728M125.334 119.636V125.333M142.425 119.636H136.728M142.425 119.636H148.122M142.425 119.636V125.333M136.728 119.636V125.333M148.122 119.636V125.333M170.91 119.636H176.607M170.91 119.636V125.333M176.607 119.636V125.333M39.8794 125.333V119.636H34.1824V125.333M39.8794 125.333H34.1824M39.8794 125.333V131.03M39.8794 125.333H45.5763M34.1824 125.333V131.03H39.8794M68.3642 125.333H62.6673V131.03M68.3642 125.333V131.03H62.6673M85.4551 125.333H79.7582M85.4551 125.333H91.1521M85.4551 125.333V131.03M79.7582 125.333V131.03M91.1521 125.333H96.8491M96.8491 125.333H102.546M102.546 125.333H108.243M102.546 125.333V131.03M113.94 125.333H108.243M113.94 125.333V131.03M108.243 125.333V131.03M131.031 125.333H125.334M131.031 125.333H136.728M131.031 125.333V131.03M125.334 125.333V131.03M136.728 125.333V131.03M136.728 125.333H142.425M148.122 125.333H142.425M148.122 125.333V131.03M148.122 125.333H153.819M142.425 125.333V131.03M159.516 125.333V119.636H153.819V125.333M159.516 125.333H153.819M159.516 125.333V131.03M159.516 125.333H165.213M153.819 125.333V131.03M176.607 125.333H170.91M176.607 125.333V131.03M170.91 125.333H165.213M170.91 125.333V131.03M39.8794 131.03H45.5763M45.5763 125.333V131.03M45.5763 125.333H51.2733M45.5763 131.03H51.2733M51.2733 125.333V131.03M51.2733 125.333H56.9703V131.03M51.2733 131.03H56.9703M56.9703 131.03H62.6673M56.9703 131.03V136.727H62.6673M62.6673 131.03V136.727M85.4551 131.03H79.7582M85.4551 131.03V136.727M85.4551 131.03H91.1521M79.7582 131.03H74.0612V136.727M79.7582 131.03V136.727M108.243 131.03H102.546M108.243 131.03H113.94M102.546 131.03H96.8491M102.546 131.03V136.727H96.8491M113.94 131.03H119.637M113.94 131.03V136.727M131.031 131.03H125.334M131.031 131.03H136.728M131.031 131.03V136.727M125.334 131.03H119.637M125.334 131.03V136.727M136.728 131.03H142.425M142.425 131.03H148.122M148.122 131.03H153.819M148.122 131.03V136.727M153.819 131.03H159.516M153.819 131.03V136.727M159.516 131.03H165.213M159.516 131.03V136.727H153.819M165.213 125.333V131.03M165.213 131.03H170.91M165.213 131.03V136.727M170.91 131.03H176.607M170.91 131.03V136.727M176.607 131.03V136.727H170.91M62.6673 136.727H68.3642M62.6673 136.727V142.424M79.7582 136.727H74.0612M79.7582 136.727H85.4551M79.7582 136.727V142.424H85.4551M74.0612 136.727H68.3642M74.0612 136.727V142.424M85.4551 136.727H91.1521M85.4551 136.727V142.424M91.1521 131.03V136.727M91.1521 131.03H96.8491M91.1521 136.727H96.8491M91.1521 136.727V142.424M96.8491 131.03V136.727M119.637 131.03V136.727M119.637 136.727H113.94M119.637 136.727H125.334M119.637 136.727V142.424H113.94M113.94 136.727V142.424M125.334 136.727H131.031M125.334 136.727V142.424M131.031 136.727V142.424M153.819 136.727H148.122M153.819 136.727V142.424M148.122 136.727V142.424M170.91 136.727H165.213M170.91 136.727V142.424M165.213 136.727V142.424M17.0915 136.727H11.3945V142.424M17.0915 136.727V142.424M17.0915 136.727H22.7885M17.0915 142.424H11.3945M17.0915 142.424H22.7885M17.0915 142.424V148.121M11.3945 142.424V148.121M22.7885 136.727V142.424M22.7885 136.727H28.4854M22.7885 142.424H28.4854M28.4854 136.727V142.424M28.4854 136.727H34.1824M28.4854 142.424H34.1824M34.1824 136.727V142.424M34.1824 136.727H39.8794M34.1824 142.424H39.8794M39.8794 136.727V142.424M39.8794 136.727H45.5763M39.8794 142.424H45.5763M45.5763 136.727V142.424M45.5763 136.727H51.2733V142.424M45.5763 142.424H51.2733M45.5763 142.424V148.121M51.2733 142.424V148.121M68.3642 136.727V142.424M68.3642 142.424H62.6673M68.3642 142.424H74.0612M68.3642 142.424V148.121M62.6673 142.424V148.121H68.3642M74.0612 142.424V148.121M85.4551 142.424H91.1521M85.4551 142.424V148.121M91.1521 142.424V148.121M91.1521 142.424H96.8491V148.121M113.94 142.424H108.243M113.94 142.424V148.121M131.031 142.424H125.334M131.031 142.424V148.121M125.334 142.424V148.121M153.819 142.424H148.122M153.819 142.424V148.121M148.122 142.424V148.121M170.91 142.424H165.213M170.91 142.424H176.607V148.121H170.91M170.91 142.424V148.121M165.213 142.424H159.516V148.121M165.213 142.424V148.121M17.0915 148.121H11.3945M17.0915 148.121V153.818M11.3945 148.121V153.818M51.2733 148.121H45.5763M51.2733 148.121V153.818M45.5763 148.121V153.818M68.3642 148.121H74.0612M68.3642 148.121V153.818M74.0612 148.121V153.818M91.1521 148.121H85.4551M91.1521 148.121H96.8491M91.1521 148.121V153.818M85.4551 148.121H79.7582V153.818H85.4551M85.4551 148.121V153.818M96.8491 148.121V153.818H91.1521M108.243 142.424H102.546V148.121H108.243M108.243 142.424V148.121M108.243 148.121H113.94M108.243 148.121V153.818M113.94 148.121V153.818M131.031 148.121H125.334M131.031 148.121V153.818M131.031 148.121H136.728M125.334 148.121V153.818M153.819 148.121H148.122M153.819 148.121V153.818M153.819 148.121H159.516M148.122 148.121H142.425M148.122 148.121V153.818M165.213 148.121H159.516M165.213 148.121H170.91M165.213 148.121V153.818H170.91M159.516 148.121V153.818M170.91 148.121V153.818M17.0915 153.818H11.3945M17.0915 153.818V159.515M11.3945 153.818V159.515M28.4854 148.121H22.7885V153.818M28.4854 148.121V153.818M28.4854 148.121H34.1824M28.4854 153.818H22.7885M28.4854 153.818H34.1824M28.4854 153.818V159.515M22.7885 153.818V159.515M34.1824 148.121V153.818M34.1824 148.121H39.8794V153.818M34.1824 153.818H39.8794M34.1824 153.818V159.515M39.8794 153.818V159.515M51.2733 153.818H45.5763M51.2733 153.818V159.515M45.5763 153.818V159.515M74.0612 153.818H68.3642M74.0612 153.818V159.515M68.3642 153.818V159.515M85.4551 153.818H91.1521M113.94 153.818H108.243M113.94 153.818V159.515M108.243 153.818V159.515M131.031 153.818H125.334M131.031 153.818H136.728M125.334 153.818H119.637V159.515M125.334 153.818V159.515H119.637M136.728 148.121V153.818M136.728 148.121H142.425M136.728 153.818H142.425M136.728 153.818V159.515H142.425M142.425 148.121V153.818M142.425 153.818H148.122M142.425 153.818V159.515M148.122 153.818H153.819M148.122 153.818V159.515M153.819 153.818H159.516M153.819 153.818V159.515M159.516 153.818V159.515M170.91 153.818H176.607V159.515M170.91 153.818V159.515M17.0915 159.515H11.3945M17.0915 159.515V165.212M11.3945 159.515V165.212M28.4854 159.515H22.7885M28.4854 159.515H34.1824M28.4854 159.515V165.212M22.7885 159.515V165.212H28.4854M34.1824 159.515H39.8794M34.1824 159.515V165.212M39.8794 159.515V165.212H34.1824M51.2733 159.515H45.5763M51.2733 159.515V165.212M45.5763 159.515V165.212M74.0612 159.515H68.3642M74.0612 159.515V165.212M74.0612 159.515H79.7582V165.212M68.3642 159.515V165.212H74.0612M113.94 159.515H108.243M113.94 159.515H119.637M113.94 159.515V165.212M108.243 159.515H102.546M108.243 159.515V165.212M119.637 159.515V165.212M142.425 159.515H148.122M148.122 159.515H153.819M148.122 159.515V165.212M153.819 159.515H159.516M153.819 159.515V165.212H148.122M159.516 159.515H165.213V165.212M159.516 159.515V165.212H165.213M176.607 159.515H170.91M176.607 159.515V165.212H170.91M170.91 159.515V165.212M17.0915 165.212H11.3945M17.0915 165.212V170.909M11.3945 165.212V170.909M28.4854 165.212H34.1824M51.2733 165.212H45.5763M51.2733 165.212V170.909M45.5763 165.212V170.909M74.0612 165.212H79.7582M74.0612 165.212V170.909H79.7582M79.7582 165.212V170.909M102.546 159.515H96.8491V165.212M102.546 159.515V165.212M102.546 165.212H96.8491M102.546 165.212H108.243M102.546 165.212V170.909M96.8491 165.212H91.1521M96.8491 165.212V170.909H91.1521M108.243 165.212V170.909M108.243 165.212H113.94M119.637 165.212H113.94M119.637 165.212V170.909M113.94 165.212V170.909M148.122 165.212H142.425V170.909M148.122 165.212V170.909M165.213 165.212H170.91M165.213 165.212V170.909M170.91 165.212V170.909M17.0915 170.909H11.3945M17.0915 170.909V176.606M17.0915 170.909H22.7885M11.3945 170.909V176.606H17.0915M51.2733 170.909H45.5763M51.2733 170.909V176.606H45.5763M45.5763 170.909H39.8794M45.5763 170.909V176.606M79.7582 170.909H85.4551M79.7582 170.909V176.606H85.4551M91.1521 165.212H85.4551V170.909M91.1521 165.212V170.909M91.1521 170.909H85.4551M91.1521 170.909V176.606H85.4551M85.4551 170.909V176.606M108.243 170.909H102.546M108.243 170.909H113.94M108.243 170.909V176.606H102.546V170.909M113.94 170.909H119.637M113.94 170.909V176.606H119.637V170.909M131.031 165.212H125.334V170.909M131.031 165.212V170.909M131.031 165.212H136.728V170.909M131.031 170.909H125.334M131.031 170.909H136.728M131.031 170.909V176.606M125.334 170.909V176.606H131.031M136.728 170.909V176.606M136.728 170.909H142.425M148.122 170.909H142.425M148.122 170.909V176.606M148.122 170.909H153.819V176.606H148.122M142.425 170.909V176.606M170.91 170.909H165.213M170.91 170.909V176.606H165.213V170.909M17.0915 176.606H22.7885M22.7885 170.909V176.606M22.7885 170.909H28.4854M22.7885 176.606H28.4854M28.4854 170.909V176.606M28.4854 170.909H34.1824M28.4854 176.606H34.1824M34.1824 170.909V176.606M34.1824 170.909H39.8794M34.1824 176.606H39.8794M39.8794 170.909V176.606M39.8794 176.606H45.5763M131.031 176.606H136.728M136.728 176.606H142.425M142.425 176.606H148.122M11.3945 91.1511H17.0915V96.8481H11.3945V91.1511ZM11.3945 102.545H17.0915V108.242H11.3945V102.545ZM11.3945 113.939H17.0915V119.636H11.3945V113.939ZM22.7885 113.939H28.4854V119.636H22.7885V113.939ZM45.5763 113.939H51.2733V119.636H45.5763V113.939ZM11.3945 125.333H17.0915V131.03H11.3945V125.333ZM22.7885 125.333H28.4854V131.03H22.7885V125.333ZM136.728 136.727H142.425V142.424H136.728V136.727ZM56.9703 153.818H62.6673V159.515H56.9703V153.818ZM62.6673 170.909H68.3642V176.606H62.6673V170.909Z" stroke="black" stroke-width="0.5"/>
</svg>
