<svg width="120" height="40" viewBox="0 0 120 40" fill="none" xmlns="http://www.w3.org/2000/svg">
<path d="M0 5.71431C0 2.55837 2.26214 0 5.05263 0H114.948C117.738 0 120 2.55838 120 5.71431V34.2857C120 37.4416 117.738 40 114.948 40H5.05263C2.26214 40 0 37.4416 0 34.2857V5.71431Z" fill="black"/>
<path fill-rule="evenodd" clip-rule="evenodd" d="M114.948 0.769231H5.05263C2.77321 0.769231 0.769231 2.89151 0.769231 5.71431V34.2857C0.769231 37.1085 2.77321 39.2308 5.05263 39.2308H114.948C117.227 39.2308 119.231 37.1085 119.231 34.2857V5.71431C119.231 2.89151 117.227 0.769231 114.948 0.769231ZM5.05263 0C2.26214 0 0 2.55837 0 5.71431V34.2857C0 37.4416 2.26214 40 5.05263 40H114.948C117.738 40 120 37.4416 120 34.2857V5.71431C120 2.55837 117.738 0 114.948 0H5.05263Z" fill="#A6A6A6"/>
<path d="M10.6264 31.6636C12.5615 33.5716 15.6759 33.5716 21.9049 33.5716H23.0059C29.2349 33.5716 32.3493 33.5716 34.2844 31.6636C36.2194 29.7556 36.2194 26.6847 36.2194 20.5429V19.4572C36.2194 13.3155 36.2194 10.2446 34.2844 8.33663C32.3493 6.42871 29.2349 6.42871 23.0059 6.42871H21.9049C15.6759 6.42871 12.5615 6.42871 10.6264 8.33663C8.69141 10.2446 8.69141 13.3155 8.69141 19.4572V20.5429C8.69141 26.6847 8.69141 29.7556 10.6264 31.6636Z" fill="#0077FF"/>
<path fill-rule="evenodd" clip-rule="evenodd" d="M29.9462 24.4692L28.0862 24.011C27.8622 23.9476 27.7041 23.7489 27.6961 23.518L27.464 16.7679C27.3968 15.8745 26.7242 15.1639 26.0214 14.9547C25.9819 14.9429 25.9397 14.9588 25.9164 14.9922C25.8926 15.0263 25.9018 15.0734 25.9349 15.0986C26.1085 15.2312 26.5862 15.6635 26.5862 16.4092L26.5848 25.2347C26.5848 26.0869 25.7681 26.7119 24.9257 26.5044L23.037 26.0392C22.8276 25.9669 22.6821 25.7746 22.6744 25.5528L22.4424 18.8022C22.3752 17.9089 21.7026 17.1983 20.9997 16.989C20.9603 16.9773 20.9181 16.9931 20.8947 17.0265C20.8711 17.0606 20.8802 17.1077 20.9133 17.133C21.0869 17.2655 21.5646 17.6978 21.5646 18.4435L21.5632 25.8L21.5643 25.8002V27.2699C21.5643 28.122 20.7475 28.7471 19.9051 28.5395L14.5703 27.2255C13.8286 27.0429 13.3086 26.3887 13.3086 25.6384V16.7991C13.3086 15.9469 14.1253 15.3219 14.9677 15.5294L18.3292 16.3574V14.7639C18.3292 13.9118 19.1459 13.2867 19.9883 13.4942L23.3496 14.3222V12.7287C23.3496 11.8765 24.1663 11.2515 25.0087 11.459L30.3436 12.773C31.0853 12.9557 31.6053 13.6099 31.6053 14.3602V23.1995C31.6053 24.0516 30.7886 24.6766 29.9462 24.4692Z" fill="white"/>
<path d="M52.3441 31.4285H50.2404L46.9022 26.8342H45.1462V31.4285H43.3555V19.3428H47.6672C48.5018 19.3428 49.2494 19.5028 49.9101 19.8228C50.5707 20.1428 51.0807 20.5885 51.44 21.1599C51.8109 21.7199 51.9964 22.3656 51.9964 23.0971C51.9964 24.0114 51.7124 24.7942 51.1445 25.4456C50.5765 26.0856 49.8173 26.5085 48.8669 26.7142L52.3441 31.4285ZM45.1462 20.9714V25.2228H47.6672C48.409 25.2228 49.006 25.0285 49.458 24.6399C49.9216 24.2399 50.1535 23.7256 50.1535 23.0971C50.1535 22.4685 49.9216 21.9599 49.458 21.5714C49.006 21.1714 48.409 20.9714 47.6672 20.9714H45.1462Z" fill="white"/>
<path d="M57.0977 31.5997C56.4602 31.5997 55.8865 31.4454 55.3765 31.1369C54.8665 30.8169 54.4666 30.3826 54.1768 29.834C53.887 29.274 53.7422 28.6454 53.7422 27.9483V22.5654H55.446V27.8112C55.446 28.4854 55.6373 29.034 56.0197 29.4569C56.4023 29.8797 56.8949 30.0912 57.4976 30.0912C58.1235 30.0912 58.645 29.874 59.0623 29.4397C59.4796 29.0054 59.6883 28.4626 59.6883 27.8112V22.5654H61.3921V31.4283H60.175L59.7752 30.0912C59.4854 30.5712 59.1029 30.9426 58.6276 31.2054C58.164 31.4683 57.654 31.5997 57.0977 31.5997Z" fill="white"/>
<path d="M67.742 31.6004C66.6176 31.6004 65.6382 31.3147 64.8037 30.7433C63.9807 30.1604 63.4186 29.3719 63.1172 28.3776L64.8384 28.1033C65.1746 28.7433 65.5745 29.2176 66.0381 29.5261C66.5017 29.8233 67.0696 29.9719 67.742 29.9719C68.4258 29.9719 68.9821 29.8233 69.411 29.5261C69.8399 29.2176 70.0543 28.8004 70.0543 28.2747C70.0543 27.8861 69.9326 27.5604 69.6892 27.2976C69.4573 27.0347 69.1618 26.8233 68.8025 26.6633C68.4432 26.5033 67.9737 26.3261 67.3942 26.1319C66.6177 25.8804 65.9801 25.629 65.4817 25.3776C64.9833 25.1261 64.5603 24.7719 64.2126 24.3147C63.8764 23.8461 63.7083 23.2519 63.7083 22.5319C63.7083 21.8576 63.8764 21.269 64.2126 20.7661C64.5603 20.2519 65.0355 19.8576 65.6382 19.5833C66.241 19.309 66.9132 19.1719 67.655 19.1719C68.6866 19.1719 69.5733 19.4404 70.3151 19.9776C71.0569 20.5033 71.5843 21.229 71.8973 22.1547L70.2108 22.429C69.979 21.9033 69.6487 21.5033 69.2197 21.229C68.7909 20.9433 68.2867 20.8004 67.7072 20.8004C67.0813 20.8004 66.5655 20.949 66.1598 21.2461C65.7541 21.5319 65.5513 21.9261 65.5513 22.429C65.5513 22.8061 65.6672 23.1261 65.899 23.389C66.1424 23.6519 66.438 23.8633 66.7857 24.0233C67.145 24.1833 67.6203 24.3661 68.2113 24.5719C68.9647 24.8233 69.5906 25.0804 70.089 25.3433C70.599 25.5947 71.0279 25.9547 71.3756 26.4233C71.7233 26.8919 71.8973 27.4804 71.8973 28.189C71.8973 28.8747 71.7118 29.4747 71.3409 29.989C70.9816 30.5033 70.4832 30.9033 69.8456 31.189C69.2197 31.4633 68.5185 31.6004 67.742 31.6004Z" fill="white"/>
<path d="M79.0961 29.9541L78.9399 31.4284H77.3576C76.4184 31.4284 75.7061 31.1998 75.2192 30.7427C74.7323 30.2855 74.4888 29.6284 74.4888 28.7713V24.057H72.9414V22.5655H74.4888L74.9584 19.9941H76.1923V22.5655H78.9399V24.057H76.1923V28.7713C76.1923 29.5598 76.5807 29.9541 77.3576 29.9541H79.0961Z" fill="white"/>
<path d="M84.7782 31.6002C83.862 31.6002 83.0451 31.4059 82.3266 31.0174C81.6082 30.6288 81.0459 30.0859 80.6397 29.3888C80.2343 28.6917 80.0312 27.8974 80.0312 27.0059C80.0312 26.1145 80.2343 25.3202 80.6397 24.6231C81.0459 23.9259 81.6082 23.3831 82.3266 22.9945C83.0451 22.5945 83.862 22.3945 84.7782 22.3945C85.6936 22.3945 86.5105 22.5945 87.2289 22.9945C87.9482 23.3831 88.5097 23.9259 88.9159 24.6231C89.3212 25.3202 89.5243 26.1145 89.5243 27.0059C89.5243 27.8974 89.3212 28.6917 88.9159 29.3888C88.5097 30.0859 87.9482 30.6288 87.2289 31.0174C86.5105 31.4059 85.6936 31.6002 84.7782 31.6002ZM84.7782 30.0574C85.6589 30.0574 86.3712 29.7774 86.9166 29.2174C87.4728 28.6574 87.7512 27.9202 87.7512 27.0059C87.7512 26.0917 87.4728 25.3545 86.9166 24.7945C86.3712 24.2231 85.6589 23.9374 84.7782 23.9374C83.8966 23.9374 83.1843 24.2231 82.6397 24.7945C82.0943 25.3545 81.822 26.0917 81.822 27.0059C81.822 27.9088 82.0943 28.6459 82.6397 29.2174C83.1843 29.7774 83.8966 30.0574 84.7782 30.0574Z" fill="white"/>
<path d="M91.3516 31.4283V22.5654H92.5862L92.9516 23.834C93.2177 23.3883 93.5485 23.0683 93.9423 22.874C94.3362 22.6683 94.8062 22.5654 95.3508 22.5654H95.7677L95.907 24.1769H94.9331C94.3077 24.1769 93.8377 24.354 93.5254 24.7083C93.2123 25.0626 93.0554 25.5426 93.0554 26.1483V31.4283H91.3516Z" fill="white"/>
<path d="M105.648 26.9374C105.648 27.1659 105.643 27.3431 105.631 27.4688H98.2067C98.2998 28.2574 98.6128 28.8859 99.1459 29.3545C99.679 29.8231 100.357 30.0574 101.18 30.0574C101.748 30.0574 102.252 29.9488 102.693 29.7317C103.144 29.5031 103.487 29.2059 103.718 28.8402L105.318 29.0974C104.971 29.8974 104.408 30.5145 103.631 30.9488C102.867 31.3831 102.014 31.6002 101.076 31.6002C100.184 31.6002 99.3836 31.4059 98.6767 31.0174C97.9697 30.6174 97.419 30.0688 97.0251 29.3717C96.6305 28.6745 96.4336 27.8859 96.4336 27.0059C96.4336 26.1145 96.6305 25.3202 97.0251 24.6231C97.419 23.9259 97.9636 23.3831 98.659 22.9945C99.3544 22.5945 100.148 22.3945 101.041 22.3945C101.922 22.3945 102.71 22.5945 103.405 22.9945C104.113 23.3831 104.663 23.9259 105.057 24.6231C105.451 25.3088 105.648 26.0802 105.648 26.9374ZM101.041 23.8859C100.357 23.8859 99.7659 24.0859 99.2674 24.4859C98.7805 24.8859 98.4559 25.4231 98.2936 26.0974H103.788C103.637 25.4345 103.313 24.9031 102.814 24.5031C102.327 24.0917 101.737 23.8859 101.041 23.8859Z" fill="white"/>
<path d="M45.8892 14.7079C45.2799 14.7079 44.7322 14.5664 44.2461 14.2833C43.7599 13.9941 43.3784 13.5941 43.1015 13.0833C42.8307 12.5725 42.6953 11.9972 42.6953 11.3572C42.6953 10.7172 42.8307 10.1449 43.1015 9.64024C43.3784 9.12947 43.7569 8.73255 44.2369 8.44947C44.723 8.16024 45.2707 8.01562 45.8799 8.01562C46.5384 8.01562 47.123 8.18178 47.6338 8.51409C48.1507 8.84024 48.5199 9.28332 48.7415 9.84332L47.7999 9.99101C47.6276 9.64639 47.3722 9.3787 47.0338 9.18793C46.7015 8.99101 46.3261 8.89255 45.9076 8.89255C45.4769 8.89255 45.0922 8.99716 44.7538 9.20639C44.4215 9.41563 44.1599 9.70793 43.9692 10.0833C43.7845 10.4525 43.6922 10.8772 43.6922 11.3572C43.6922 11.8433 43.7845 12.2741 43.9692 12.6495C44.1599 13.0187 44.4245 13.3079 44.763 13.5172C45.1015 13.7264 45.4892 13.831 45.9261 13.831C46.3569 13.831 46.7384 13.7325 47.0707 13.5356C47.4092 13.3325 47.6676 13.0495 47.8461 12.6864L48.7876 12.8341C48.5538 13.4064 48.1753 13.8618 47.6522 14.2002C47.1292 14.5387 46.5415 14.7079 45.8892 14.7079Z" fill="white"/>
<path d="M53.6095 14.6151H52.4187L50.6556 12.6397H50.3695V14.6151H49.4648V9.84277H50.3695V11.772H50.6464L52.3356 9.84277H53.4248L51.3756 12.1505L53.6095 14.6151Z" fill="white"/>
<path d="M55.7616 9.75098C56.3523 9.75098 56.8169 9.94482 57.1554 10.3325C57.5 10.7141 57.6723 11.2494 57.6723 11.9387V14.6156H57.0262L56.8139 13.8679C56.66 14.1079 56.4539 14.3079 56.1954 14.4679C55.9369 14.6279 55.6262 14.7079 55.2631 14.7079C54.9431 14.7079 54.6569 14.6433 54.4046 14.5141C54.1523 14.3848 53.9554 14.2064 53.8139 13.9787C53.6723 13.7448 53.6016 13.4833 53.6016 13.1941C53.6016 12.7448 53.78 12.3848 54.1369 12.1141C54.4939 11.8433 55.0108 11.7079 55.6877 11.7079H56.7677C56.7431 11.3325 56.6385 11.0433 56.4539 10.8402C56.2693 10.631 56.0231 10.5264 55.7154 10.5264C55.4816 10.5264 55.2754 10.5817 55.0969 10.6925C54.9185 10.8033 54.7831 10.9479 54.6908 11.1264L53.8508 10.9879C53.9739 10.6064 54.2108 10.3048 54.5616 10.0833C54.9123 9.86175 55.3123 9.75098 55.7616 9.75098ZM55.4569 13.9417C55.8446 13.9417 56.1585 13.8156 56.3985 13.5633C56.6446 13.3048 56.7677 12.951 56.7677 12.5017V12.4464H55.7154C54.9154 12.4464 54.5154 12.6864 54.5154 13.1664C54.5154 13.4002 54.6016 13.5879 54.7739 13.7294C54.9462 13.871 55.1739 13.9417 55.4569 13.9417Z" fill="white"/>
<path d="M61.2163 12.8797C61.0686 12.9474 60.8932 12.9997 60.6901 13.0366C60.4871 13.0735 60.2871 13.092 60.0901 13.092C59.5178 13.092 59.0778 12.932 58.7701 12.612C58.4624 12.292 58.3086 11.8397 58.3086 11.2551V9.84277H59.2132V11.2551C59.2132 11.9382 59.5424 12.2797 60.2009 12.2797C60.6009 12.2797 60.9394 12.2089 61.2163 12.0674V9.84277H62.1209V14.6151H61.2163V12.8797Z" fill="white"/>
<path d="M65.0662 9.75098C65.657 9.75098 66.1216 9.94482 66.4601 10.3325C66.8047 10.7141 66.977 11.2494 66.977 11.9387V14.6156H66.3309L66.1186 13.8679C65.9647 14.1079 65.7586 14.3079 65.5001 14.4679C65.2416 14.6279 64.9309 14.7079 64.5678 14.7079C64.2478 14.7079 63.9616 14.6433 63.7093 14.5141C63.457 14.3848 63.2601 14.2064 63.1186 13.9787C62.977 13.7448 62.9062 13.4833 62.9062 13.1941C62.9062 12.7448 63.0847 12.3848 63.4416 12.1141C63.7986 11.8433 64.3155 11.7079 64.9924 11.7079H66.0724C66.0478 11.3325 65.9432 11.0433 65.7586 10.8402C65.5739 10.631 65.3278 10.5264 65.0201 10.5264C64.7863 10.5264 64.5801 10.5817 64.4016 10.6925C64.2232 10.8033 64.0878 10.9479 63.9955 11.1264L63.1555 10.9879C63.2786 10.6064 63.5155 10.3048 63.8663 10.0833C64.217 9.86175 64.617 9.75098 65.0662 9.75098ZM64.7616 13.9417C65.1493 13.9417 65.4632 13.8156 65.7032 13.5633C65.9493 13.3048 66.0724 12.951 66.0724 12.5017V12.4464H65.0201C64.2201 12.4464 63.8201 12.6864 63.8201 13.1664C63.8201 13.4002 63.9063 13.5879 64.0786 13.7294C64.2509 13.871 64.4786 13.9417 64.7616 13.9417Z" fill="white"/>
<path d="M69.3189 14.6158H67.9805V9.84348H68.8574V13.6004H68.9959L70.9251 9.84348H72.2635V14.6158H71.3866V10.8681H71.2482L69.3189 14.6158ZM70.1312 9.22502C69.7312 9.22502 69.3959 9.1204 69.1251 8.91117C68.8605 8.69579 68.7036 8.37579 68.6543 7.95117H69.3928C69.4236 8.14809 69.5005 8.29886 69.6235 8.40348C69.7528 8.50194 69.922 8.55117 70.1312 8.55117C70.3405 8.55117 70.5066 8.50194 70.6297 8.40348C70.7589 8.29886 70.8359 8.14809 70.8605 7.95117H71.6082C71.5528 8.37579 71.3897 8.69579 71.1189 8.91117C70.8543 9.1204 70.5251 9.22502 70.1312 9.22502Z" fill="white"/>
<path d="M75.4083 14.6151H74.5039V10.6735H72.8516V9.84277H77.0606V10.6735H75.4083V14.6151Z" fill="white"/>
<path d="M82.0993 12.1971C82.0993 12.3202 82.0963 12.4156 82.0901 12.4833H78.1486C78.1978 12.9079 78.3639 13.2464 78.647 13.4987C78.9301 13.751 79.2901 13.8771 79.727 13.8771C80.0286 13.8771 80.2963 13.8187 80.5301 13.7017C80.7701 13.5787 80.9516 13.4187 81.0747 13.2217L81.924 13.3602C81.7393 13.791 81.4409 14.1233 81.0286 14.3571C80.6224 14.591 80.1701 14.7079 79.6716 14.7079C79.1978 14.7079 78.7732 14.6033 78.3978 14.3941C78.0224 14.1787 77.7301 13.8833 77.5209 13.5079C77.3116 13.1325 77.207 12.7079 77.207 12.2341C77.207 11.7541 77.3116 11.3264 77.5209 10.951C77.7301 10.5756 78.0193 10.2833 78.3886 10.0741C78.7578 9.85867 79.1793 9.75098 79.6532 9.75098C80.1209 9.75098 80.5393 9.85867 80.9086 10.0741C81.284 10.2833 81.5763 10.5756 81.7855 10.951C81.9947 11.3202 82.0993 11.7356 82.0993 12.1971ZM79.6532 10.5541C79.2901 10.5541 78.9763 10.6617 78.7116 10.8771C78.4532 11.0925 78.2809 11.3817 78.1947 11.7448H81.1116C81.0316 11.3879 80.8593 11.1017 80.5947 10.8864C80.3363 10.6648 80.0224 10.5541 79.6532 10.5541Z" fill="white"/>
<path d="M86.1627 14.6151H84.8242V9.84277H85.7011V13.5997H85.8396L87.7688 9.84277H89.1073V14.6151H88.2304V10.8674H88.0919L86.1627 14.6151Z" fill="white"/>
<path d="M92.766 12.1787C93.0183 12.2525 93.2275 12.3879 93.3937 12.5848C93.5598 12.7756 93.6429 13.0125 93.6429 13.2956C93.6429 13.5602 93.566 13.8002 93.4121 14.0156C93.2583 14.2248 93.0367 14.3941 92.7475 14.5233C92.4644 14.6464 92.1352 14.7079 91.7598 14.7079C91.2552 14.7079 90.8214 14.591 90.4583 14.3571C90.0952 14.1171 89.8552 13.7971 89.7383 13.3971L90.5783 13.2587C90.7814 13.7017 91.1721 13.9233 91.7506 13.9233C92.0706 13.9233 92.3137 13.8648 92.4798 13.7479C92.6521 13.6248 92.7383 13.4556 92.7383 13.2402C92.7383 13.0494 92.6583 12.8956 92.4983 12.7787C92.3444 12.6617 92.0952 12.6033 91.7506 12.6033H91.1229V11.8094H91.7506C92.046 11.8094 92.2706 11.7541 92.4244 11.6433C92.5844 11.5325 92.6644 11.3848 92.6644 11.2002C92.6644 11.0033 92.5783 10.8433 92.406 10.7202C92.2398 10.5971 92.0337 10.5356 91.7875 10.5356C91.5475 10.5356 91.3321 10.5941 91.1414 10.711C90.9506 10.8279 90.806 10.9879 90.7075 11.191L89.8675 11.0433C90.009 10.631 90.2521 10.3141 90.5967 10.0925C90.9475 9.86482 91.3537 9.75098 91.8152 9.75098C92.1475 9.75098 92.446 9.80944 92.7106 9.92636C92.9814 10.0433 93.1906 10.2064 93.3383 10.4156C93.4921 10.6248 93.569 10.8587 93.569 11.1171C93.569 11.3817 93.4952 11.6064 93.3475 11.791C93.1998 11.9756 93.006 12.1048 92.766 12.1787Z" fill="white"/>
</svg>
