<svg width="16" height="17" viewBox="0 0 16 17" fill="none" xmlns="http://www.w3.org/2000/svg">
<g clip-path="url(#clip0_1585_3436)">
<path d="M6.50891 0.5H6.51099V0.500935C8.30775 0.501469 9.93472 1.24899 11.1121 2.45688C12.2875 3.66303 13.0156 5.33036 13.0168 7.17184H13.0177V7.17625V7.18159H13.0168C13.0161 7.92377 12.8974 8.63803 12.679 9.30408C12.6424 9.41587 12.6041 9.52325 12.5648 9.62582V9.62675C12.3765 10.1156 12.1332 10.5777 11.8425 11.0033L15.6293 14.4944L15.6316 14.4965L15.6521 14.516L15.6535 14.5175C15.8673 14.7262 15.9837 15.0058 15.9984 15.2894C16.0128 15.5699 15.9277 15.8568 15.7408 16.0869L15.7393 16.089L15.7165 16.1162L15.712 16.1208L15.693 16.1422L15.6909 16.145C15.4871 16.3643 15.2151 16.4834 14.9383 16.4984C14.6652 16.5132 14.3853 16.4263 14.1608 16.2342L14.1588 16.2328L14.1323 16.2094L14.1285 16.2062L10.2554 12.6357C10.1408 12.7185 10.0239 12.7971 9.90555 12.8714C9.745 12.9722 9.57872 13.0672 9.40906 13.1539C8.53679 13.6002 7.5511 13.8513 6.50904 13.8513V13.8522H6.50695V13.8513C4.71019 13.8508 3.08297 13.1032 1.90561 11.8954C0.729824 10.6892 0.00208335 9.02161 0.000911466 7.18066H0V7.17625V7.17411H0.000911466C0.0014323 5.33116 0.730214 3.6621 1.90783 2.45447C3.08375 1.24899 4.70928 0.502137 6.50461 0.500935V0.5H6.50891ZM6.51099 1.99717V1.99811H6.50891H6.50461V1.99717C5.11319 1.99811 3.85198 2.57815 2.93896 3.51425C2.02606 4.45035 1.46004 5.74532 1.45965 7.17425H1.46056V7.17638V7.18079H1.45965C1.46056 8.60798 2.02567 9.90095 2.9387 10.8377C3.85133 11.7742 5.11384 12.3548 6.50682 12.3551V12.3541H6.50891H6.5132V12.3551C7.90462 12.3541 9.16531 11.7744 10.0786 10.838C10.9915 9.90188 11.5575 8.60731 11.5578 7.17852H11.557V7.17638V7.17198H11.5578C11.557 5.74479 10.9914 4.45115 10.0789 3.51465C9.16622 2.57815 7.9041 1.99758 6.51099 1.99717Z" fill="#3E3E3E"/>
</g>
<defs>
<clipPath id="clip0_1585_3436">
<rect width="16" height="16" fill="white" transform="translate(0 0.5)"/>
</clipPath>
</defs>
</svg>
