<svg width="20" height="20" viewBox="0 0 20 20" fill="none" xmlns="http://www.w3.org/2000/svg">
<path d="M9.99978 19C12.3398 19 14.4638 18.109 16.0657 16.642C15.9757 15.796 15.4357 14.968 14.4728 14.32C12.0248 12.682 7.99276 12.682 5.52677 14.32C4.56378 14.968 4.02378 15.796 3.93378 16.642C5.53577 18.109 7.65976 19 9.99978 19ZM9.99978 19C14.9703 19 18.9999 14.9705 18.9999 9.99996C18.9999 5.02942 14.9705 1 9.99996 1C5.02942 1 1 5.02942 1 9.99996C1 14.9705 5.02923 19 9.99978 19ZM10.1086 10.702C10.0456 10.693 9.96458 10.693 9.89259 10.702C8.30859 10.648 7.0486 9.35196 7.0486 7.75895C7.0486 6.12996 8.36259 4.80696 10.0006 4.80696C11.6296 4.80696 12.9526 6.12996 12.9526 7.75895C12.9436 9.35196 11.6926 10.648 10.1086 10.702Z" stroke="black" stroke-width="2" stroke-linecap="round" stroke-linejoin="round"/>
</svg>
